<svg width="305" height="305" viewBox="0 0 305 305" fill="none" xmlns="http://www.w3.org/2000/svg">
<path d="M297.31 122.991C296.993 121.267 296.007 119.737 294.567 118.737C293.127 117.736 291.35 117.345 289.623 117.649C287.933 117.966 286.437 118.938 285.46 120.354C284.484 121.769 284.107 123.513 284.412 125.206C285.865 133.334 286.606 141.573 286.626 149.83C286.626 151.557 287.313 153.214 288.534 154.436C289.756 155.658 291.413 156.344 293.141 156.344C294.868 156.344 296.525 155.658 297.747 154.436C298.969 153.214 299.655 151.557 299.655 149.83C299.662 140.832 298.877 131.851 297.31 122.991Z" fill="#2677CC"/>
<path d="M214.319 270.468C209.127 273.217 203.776 275.653 198.294 277.764C196.566 278.075 195.033 279.059 194.031 280.501C193.029 281.942 192.641 283.723 192.952 285.451C193.263 287.178 194.248 288.712 195.689 289.713C197.131 290.715 198.911 291.103 200.639 290.792C201.416 290.916 202.208 290.916 202.984 290.792C208.98 288.499 214.813 285.8 220.442 282.715C221.192 282.318 221.855 281.777 222.394 281.121C222.932 280.465 223.334 279.709 223.576 278.897C223.819 278.084 223.897 277.231 223.806 276.388C223.716 275.545 223.458 274.728 223.048 273.986C222.737 273.157 222.257 272.402 221.639 271.769C221.021 271.136 220.278 270.638 219.457 270.307C218.636 269.976 217.756 269.82 216.871 269.847C215.987 269.875 215.118 270.086 214.319 270.468Z" fill="#2677CC"/>
<path d="M257.311 234.519C253.315 239.478 248.96 244.138 244.283 248.46C243.345 249.363 242.7 250.527 242.43 251.801C242.161 253.075 242.279 254.4 242.77 255.606C243.26 256.812 244.101 257.843 245.184 258.566C246.266 259.29 247.541 259.672 248.843 259.664C249.686 259.676 250.522 259.521 251.305 259.208C252.088 258.895 252.801 258.43 253.403 257.84C258.376 253.108 262.993 248.013 267.213 242.597C267.832 241.941 268.308 241.164 268.611 240.314C268.914 239.464 269.038 238.561 268.973 237.661C268.909 236.762 268.659 235.885 268.238 235.087C267.817 234.289 267.235 233.587 266.529 233.026C265.823 232.465 265.008 232.056 264.136 231.826C263.263 231.597 262.353 231.55 261.462 231.691C260.571 231.831 259.719 232.155 258.959 232.642C258.2 233.129 257.55 233.768 257.051 234.519H257.311Z" fill="#2677CC"/>
<path d="M289.494 182.404C288.673 182.165 287.813 182.089 286.962 182.182C286.112 182.275 285.288 182.535 284.538 182.946C283.788 183.358 283.126 183.913 282.591 184.58C282.055 185.247 281.656 186.013 281.417 186.834C279.695 193.023 277.517 199.076 274.902 204.944C274.535 205.719 274.328 206.561 274.294 207.419C274.26 208.277 274.399 209.133 274.703 209.935C275.007 210.738 275.47 211.471 276.064 212.091C276.658 212.711 277.371 213.204 278.16 213.542C279.018 213.725 279.906 213.725 280.765 213.542C282.037 213.547 283.282 213.179 284.346 212.485C285.411 211.79 286.25 210.799 286.758 209.634C289.645 203.269 292.041 196.692 293.924 189.961C294.257 188.376 293.988 186.724 293.169 185.327C292.35 183.93 291.04 182.888 289.494 182.404Z" fill="#2677CC"/>
<path d="M280.112 91.2019H281.024C281.958 91.0479 282.847 90.6922 283.629 90.1596H284.281C285.266 89.2361 286.063 88.1299 286.626 86.9025L299.654 47.8171C299.937 46.9617 300.048 46.059 299.981 45.1606C299.915 44.2622 299.672 43.3858 299.267 42.5813C298.861 41.7767 298.301 41.0599 297.619 40.4717C296.937 39.8836 296.145 39.4355 295.29 39.1532C294.434 38.8709 293.532 38.7599 292.633 38.8264C291.735 38.893 290.859 39.1358 290.054 39.5411C289.25 39.9464 288.533 40.5062 287.945 41.1885C287.356 41.8708 286.908 42.6623 286.626 43.5177L278.158 68.6627C264.179 47.4339 245.119 30.0339 222.708 18.0432C200.296 6.05259 175.244 -0.148703 149.827 0.00270749C110.091 0.00270749 71.9814 15.788 43.8834 43.8861C15.7853 71.9841 0 110.093 0 149.83C0 189.567 15.7853 227.676 43.8834 255.774C71.9814 283.872 110.091 299.657 149.827 299.657C155.835 299.638 161.837 299.291 167.806 298.615C169.525 298.387 171.086 297.496 172.157 296.133C173.228 294.77 173.724 293.043 173.539 291.319C173.443 290.465 173.177 289.64 172.755 288.892C172.333 288.144 171.764 287.489 171.083 286.966C170.402 286.443 169.622 286.063 168.79 285.848C167.959 285.633 167.092 285.589 166.243 285.717C160.901 285.717 155.299 286.629 149.827 286.629C113.546 286.629 78.7506 272.216 53.0959 246.561C27.4411 220.907 13.0285 186.111 13.0285 149.83C13.0285 113.549 27.4411 78.7533 53.0959 53.0986C78.7506 27.4439 113.546 13.0312 149.827 13.0312C173.552 12.8137 196.935 18.689 217.739 30.0947C238.543 41.5004 256.071 58.0548 268.647 78.1734H241.026C240.156 78.1159 239.283 78.2449 238.467 78.5519C237.651 78.8589 236.909 79.3368 236.292 79.9536C235.676 80.5704 235.198 81.3118 234.891 82.1282C234.584 82.9447 234.455 83.8173 234.512 84.6877C234.512 86.4153 235.198 88.0723 236.42 89.2939C237.642 90.5156 239.299 91.2019 241.026 91.2019H280.112Z" fill="#2677CC"/>
<path d="M117.255 136.803C114.388 139.67 110.61 143.187 105.79 147.226L75.0425 177.452C73.9004 178.409 72.9309 179.555 72.1762 180.84C71.7068 181.725 71.4398 182.704 71.3945 183.706V188.266C71.4269 189.154 71.7941 189.997 72.4225 190.625C73.0509 191.254 73.8938 191.621 74.7819 191.653H137.579C138.041 191.657 138.499 191.567 138.925 191.388C139.35 191.209 139.735 190.944 140.054 190.611C140.383 190.322 140.637 189.958 140.796 189.549C140.955 189.141 141.013 188.701 140.966 188.266V182.403C141.013 181.968 140.955 181.527 140.796 181.119C140.637 180.711 140.383 180.347 140.054 180.058C139.366 179.466 138.487 179.143 137.579 179.146H93.152L120.512 151.395C124.111 148.317 127.465 144.963 130.544 141.363C133.107 138.32 135.174 134.89 136.667 131.201C138.163 127.566 138.916 123.667 138.882 119.736C138.921 114.673 137.76 109.672 135.495 105.144C133.087 100.558 129.368 96.7933 124.811 94.3307C119.097 91.4081 112.723 90.0166 106.311 90.2919C101.353 90.1932 96.4285 91.1249 91.8492 93.0278C87.9396 94.6423 84.4277 97.0873 81.5567 100.193C78.7945 103.039 76.6246 106.405 75.1728 110.095C73.7729 113.583 72.9798 117.284 72.8277 121.039C72.8393 121.41 72.9262 121.774 73.083 122.11C73.2398 122.446 73.4632 122.746 73.7397 122.993C74.3083 123.512 75.0548 123.792 75.8242 123.775H83.2504C84.0484 123.732 84.8172 123.461 85.4653 122.993C85.8883 122.717 86.247 122.353 86.5167 121.926C86.7865 121.499 86.9611 121.019 87.0287 120.518C87.4788 117.265 88.5397 114.126 90.1555 111.268C91.6217 108.567 93.8391 106.35 96.5394 104.884C99.5343 103.258 102.904 102.449 106.311 102.539C108.696 102.415 111.081 102.779 113.321 103.608C115.561 104.437 117.609 105.713 119.339 107.359C120.951 109.102 122.188 111.159 122.973 113.4C123.757 115.641 124.072 118.019 123.899 120.388C123.915 123.212 123.338 126.008 122.206 128.596C120.985 131.569 119.315 134.337 117.255 136.803Z" fill="#2677CC"/>
<path d="M227.086 155.431H214.058V95.1089C214.076 94.6762 214.005 94.2442 213.848 93.8406C213.691 93.4369 213.452 93.0702 213.146 92.7638C212.844 92.4508 212.479 92.2072 212.074 92.0497C211.669 91.8922 211.234 91.8247 210.801 91.8518H200.638C199.643 91.7779 198.645 91.9537 197.735 92.3632C196.825 92.7727 196.032 93.403 195.427 94.1969L152.694 154.519C152.171 155.275 151.775 156.111 151.521 156.994C151.436 157.599 151.436 158.213 151.521 158.818V164.551C151.502 164.983 151.574 165.415 151.731 165.819C151.888 166.223 152.127 166.589 152.433 166.896C153.088 167.459 153.915 167.781 154.778 167.808H200.899V188.262C200.888 188.694 200.963 189.124 201.119 189.527C201.276 189.929 201.511 190.297 201.811 190.607C202.131 190.941 202.515 191.205 202.941 191.384C203.367 191.564 203.825 191.654 204.286 191.65H211.322C211.765 191.661 212.206 191.573 212.612 191.392C213.017 191.212 213.378 190.944 213.667 190.607C213.995 190.318 214.25 189.954 214.409 189.546C214.567 189.138 214.626 188.698 214.579 188.262V167.808H227.607C228.47 167.781 229.298 167.459 229.952 166.896C230.259 166.589 230.498 166.223 230.655 165.819C230.812 165.415 230.883 164.983 230.864 164.551V158.688C230.892 158.254 230.824 157.82 230.667 157.415C230.509 157.01 230.265 156.644 229.952 156.343C229.583 155.971 229.13 155.695 228.631 155.536C228.132 155.377 227.602 155.341 227.086 155.431ZM201.029 155.431H166.374L200.638 106.835L201.029 155.431Z" fill="#2677CC"/>
</svg>
