<svg width="1000" height="1000" viewBox="0 0 1000 1000" fill="none" xmlns="http://www.w3.org/2000/svg">
<rect x="2.5" y="2.5" width="995" height="995" rx="497.5" stroke="url(#paint0_linear_88_246)" stroke-width="5"/>
<path d="M509.128 618.707L521.16 604.972L503.539 583.851L491.616 594.733L486.457 615.113L509.128 618.707Z" fill="#F0C9B9"/>
<path d="M493.57 592.466C493.57 592.466 469.243 604.91 470.742 607.487L510.18 665.479C510.18 665.479 517.777 654.305 511.976 641.877C503.219 623.116 511.943 619.127 511.943 619.127L488.756 613.427L493.57 592.466Z" fill="#272327"/>
<path d="M564.064 486.961C565.693 489.644 497.293 584.111 497.293 584.111C504.684 595.282 515.501 611.096 515.501 611.096C515.697 611.419 516.064 611.595 516.438 611.548C516.438 611.548 593.485 547.58 618.134 498.208C618.386 497.703 618.626 497.121 618.85 496.476C623.545 483.001 614.107 468.696 599.937 467.012L533.921 467.467" fill="#1F5C85"/>
<path d="M561.717 390.35C561.717 390.35 536.77 399.819 547.512 413.759C554.131 422.35 570 463.317 584.631 483.793C593.909 496.778 592.533 514.537 581.372 525.944L510.988 602.693" stroke="white" stroke-width="0.3196" stroke-miterlimit="10"/>
<path d="M294.517 518.237H294.629H325.135V607.066H294.629H294.741C287.188 618.702 273.992 624.344 259.086 624.344V500.959C273.992 500.959 286.964 506.601 294.517 518.237Z" fill="#E1A62C"/>
<path d="M259.085 527.897C252.593 525.016 243.351 523.255 236.268 522.713C235.197 522.631 234.083 522.582 233.086 522.982C230.742 523.92 229.964 527.055 230.78 529.443C231.595 531.831 233.539 533.632 235.411 535.325C211.298 536.586 187.887 548.09 172.155 566.41C171.372 567.322 170.561 568.392 170.684 569.588C170.786 570.579 171.509 571.379 172.207 572.089C189.209 589.381 214.077 598.616 238.244 596.615C235.465 600.882 240.137 606.809 245.213 607.205C250.289 607.602 254.917 604.542 259.085 601.616" fill="#F26D76"/>
<path d="M226.236 606.682C217.606 609.138 209.429 612.689 201.951 617.326C194.497 621.98 187.706 627.654 182.013 634.283C176.27 640.869 171.627 648.402 168.09 656.446C164.574 664.51 162.227 673.109 161.027 682.001C160.696 673.022 162.296 663.921 165.432 655.381C168.547 646.821 173.271 638.825 179.241 631.883C185.259 624.985 192.496 619.164 200.521 614.857C208.526 610.533 217.303 607.645 226.236 606.682Z" fill="#F26D76"/>
<path d="M217.609 529.59C209.614 528.666 201.752 526.338 194.352 523C186.931 519.681 179.994 515.28 173.689 510.123C167.428 504.914 161.792 498.936 157.125 492.279C152.444 485.646 148.668 478.366 146.25 470.689C150.074 477.761 154.433 484.415 159.408 490.553C164.398 496.67 169.936 502.312 176.023 507.296C182.067 512.332 188.657 516.699 195.609 520.441C202.579 524.163 209.94 527.181 217.609 529.59Z" fill="#F26D76"/>
<path d="M174.928 536.824C172.149 536.283 169.532 535.419 166.971 534.44C164.412 533.461 161.909 532.368 159.47 531.146C157.026 529.934 154.652 528.584 152.331 527.127C150.012 525.667 147.75 524.09 145.652 522.187C148.434 522.724 151.052 523.587 153.612 524.566C156.17 525.548 158.675 526.637 161.11 527.865C163.551 529.083 165.926 530.43 168.247 531.89C170.566 533.35 172.828 534.925 174.928 536.824Z" fill="#F26D76"/>
<path d="M156.638 569.735C155.543 570.691 154.386 571.269 153.214 571.76C152.039 572.228 150.839 572.555 149.62 572.76C148.4 572.965 147.159 573.044 145.896 572.981C144.629 572.897 143.346 572.723 142 572.166C143.094 571.205 144.251 570.625 145.424 570.136C146.599 569.668 147.799 569.342 149.019 569.142C150.239 568.942 151.48 568.862 152.744 568.925C154.011 569.012 155.293 569.184 156.638 569.735Z" fill="#F26D76"/>
<path d="M176.213 594.314L168.326 599.211C165.767 600.847 163.295 602.558 160.874 604.336C158.46 606.125 156.088 607.973 153.767 609.929L146.742 615.998C147.936 613.036 149.694 610.348 151.738 607.912C153.786 605.475 156.124 603.267 158.701 601.382C161.271 599.489 164.072 597.91 167.009 596.683C169.943 595.456 173.03 594.577 176.213 594.314Z" fill="#F26D76"/>
<path opacity="0.5" d="M317.815 578.104C309.866 558.657 294.629 518.237 294.629 518.237H325.135V596.076C322.571 590.142 320.257 584.077 317.815 578.104Z" fill="#E1A62C"/>
<path d="M439.237 481.763L399.935 448.177C390.377 440.009 377.811 436.265 365.342 437.87L294.35 447.007C289.36 447.65 285.918 452.331 286.792 457.285C287.567 461.674 291.495 464.795 295.946 464.557L327.982 462.848C347.661 461.799 365.15 475.295 369.125 494.598L439.237 481.763Z" fill="#F2C75E"/>
<path d="M439.237 641.459L399.935 675.044C390.377 683.212 377.811 686.956 365.342 685.351L294.35 676.214C289.36 675.572 285.918 670.89 286.792 665.935C287.567 661.546 291.495 658.425 295.946 658.663L327.982 660.371C347.661 661.421 365.15 647.925 369.125 628.622L439.237 641.459Z" fill="#E1A62C"/>
<path d="M335.551 624.951C335.551 624.951 388.876 645.689 445.164 644.701C501.452 643.714 682.226 657.539 763.201 618.039C811.51 594.474 831.35 579.696 839.496 571.607C843.182 567.948 842.738 561.877 838.576 558.77C821.943 546.357 778.239 514.363 759.252 506.451C735.551 496.576 633.778 473.863 439.24 481.763C439.24 481.763 367.152 485.713 335.552 499.538L335.551 624.951Z" fill="white"/>
<path opacity="0.37" d="M699.168 623.742C737.834 617.989 777.915 608.595 810.092 585.297C811.441 584.32 812.443 583.175 813.151 581.941C822.735 576.045 832.197 569.941 841.821 564.111C842.286 566.737 841.564 569.549 839.492 571.606C831.346 579.695 811.506 594.474 763.198 618.038C682.222 657.538 501.448 643.713 445.16 644.7C388.873 645.688 335.547 624.951 335.547 624.951L336.123 498.498C337.469 621.646 504.265 631.604 565.389 633.226C610.052 634.412 655.018 630.31 699.168 623.742Z" fill="#C67D00"/>
<path d="M762.168 522.443C761.324 517.093 760.331 511.755 759.215 506.435C759.225 506.439 759.237 506.444 759.249 506.449C778.235 514.36 821.939 546.355 838.573 558.767C842.736 561.874 843.179 567.944 839.493 571.605C831.347 579.693 811.507 594.472 763.199 618.036C762.163 618.541 761.091 619.001 760.043 619.488C767.916 587.916 767.216 554.458 762.168 522.443Z" fill="#E1A62C"/>
<path d="M319.301 503.882V619.627C319.301 624.831 323.519 629.049 328.722 629.049C333.926 629.049 338.144 624.831 338.144 619.627V503.882C338.144 498.679 333.926 494.461 328.722 494.461C323.519 494.461 319.301 498.679 319.301 503.882Z" fill="#E6D4BE"/>
<path d="M669.051 514.648C641.549 514.648 619.254 536.943 619.254 564.445C619.254 591.948 641.549 614.243 669.051 614.243C696.553 614.243 718.848 591.948 718.848 564.445C718.85 536.943 696.554 514.648 669.051 514.648ZM669.051 529.153C688.543 529.153 704.343 544.954 704.343 564.445C704.343 583.937 688.543 599.738 669.051 599.738C649.56 599.738 633.759 583.937 633.759 564.445C633.759 544.955 649.56 529.153 669.051 529.153Z" fill="#E6D4BE"/>
<path opacity="0.37" d="M669.054 599.737C688.545 599.737 704.346 583.936 704.346 564.445C704.346 544.953 688.545 529.153 669.054 529.153C649.563 529.153 633.762 544.953 633.762 564.445C633.762 583.936 649.563 599.737 669.054 599.737Z" fill="#C67D00"/>
<g opacity="0.6">
<path d="M666.594 599.614C648.255 598.347 633.762 583.107 633.762 564.446C633.762 561.531 634.154 558.715 634.819 556.006C645.211 570.685 655.807 585.219 666.594 599.614Z" fill="#FAF9F4"/>
<path d="M646.332 537.462C652.473 532.285 660.395 529.153 669.055 529.153C688.547 529.153 704.347 544.953 704.347 564.445C704.347 577.066 697.701 588.108 687.741 594.346C673.599 575.631 659.771 556.682 646.332 537.462Z" fill="#FAF9F4"/>
</g>
<path d="M711.446 561.081C713.305 561.081 714.811 562.587 714.811 564.445C714.811 566.303 713.304 567.809 711.446 567.809C709.589 567.809 708.082 566.303 708.082 564.445C708.082 562.587 709.589 561.081 711.446 561.081Z" stroke="#E6D4BE" stroke-width="0.3478" stroke-miterlimit="10"/>
<path d="M626.657 561.08C628.516 561.08 630.022 562.587 630.022 564.445C630.022 566.303 628.515 567.809 626.657 567.809C624.8 567.809 623.293 566.303 623.293 564.445C623.293 562.587 624.799 561.08 626.657 561.08Z" stroke="#E6D4BE" stroke-width="0.3478" stroke-miterlimit="10"/>
<path d="M696.65 532.088C697.964 530.773 700.095 530.773 701.408 532.088C702.722 533.402 702.722 535.533 701.408 536.846C700.093 538.16 697.963 538.16 696.65 536.846C695.335 535.533 695.335 533.402 696.65 532.088Z" stroke="#E6D4BE" stroke-width="0.3478" stroke-miterlimit="10"/>
<path d="M636.696 592.044C638.01 590.73 640.14 590.73 641.454 592.044C642.768 593.358 642.768 595.489 641.454 596.802C640.14 598.116 638.009 598.116 636.696 596.802C635.383 595.489 635.383 593.358 636.696 592.044Z" stroke="#E6D4BE" stroke-width="0.3478" stroke-miterlimit="10"/>
<path d="M665.688 522.051C665.688 520.192 667.194 518.687 669.052 518.687C670.91 518.687 672.416 520.193 672.416 522.051C672.416 523.909 670.91 525.415 669.052 525.415C667.194 525.415 665.688 523.909 665.688 522.051Z" stroke="#E6D4BE" stroke-width="0.3478" stroke-miterlimit="10"/>
<path d="M665.688 606.841C665.688 604.982 667.194 603.476 669.052 603.476C670.91 603.476 672.416 604.983 672.416 606.841C672.416 608.699 670.91 610.205 669.052 610.205C667.194 610.205 665.688 608.7 665.688 606.841Z" stroke="#E6D4BE" stroke-width="0.3478" stroke-miterlimit="10"/>
<path d="M636.697 536.847C635.382 535.533 635.382 533.402 636.697 532.089C638.011 530.775 640.14 530.775 641.455 532.089C642.769 533.404 642.769 535.534 641.455 536.847C640.142 538.16 638.011 538.16 636.697 536.847Z" stroke="#E6D4BE" stroke-width="0.3478" stroke-miterlimit="10"/>
<path d="M696.654 596.803C695.339 595.489 695.339 593.36 696.654 592.045C697.968 590.731 700.099 590.731 701.412 592.045C702.726 593.36 702.726 595.49 701.412 596.803C700.099 598.116 697.968 598.116 696.654 596.803Z" stroke="#E6D4BE" stroke-width="0.3478" stroke-miterlimit="10"/>
<path d="M597.723 645.199C597.723 645.199 625.986 561.755 599.068 483.693" stroke="#E6D4BE" stroke-width="0.6955" stroke-miterlimit="10" stroke-dasharray="5.56 5.56"/>
<path d="M720.485 629.574C726.826 603.287 736.271 547.713 720.461 493.037" stroke="#E6D4BE" stroke-width="0.6955" stroke-miterlimit="10" stroke-dasharray="5.56 5.56"/>
<path d="M577.531 645.199C577.531 645.199 605.795 561.755 578.877 483.693" stroke="#E6D4BE" stroke-width="0.6955" stroke-miterlimit="10" stroke-dasharray="5.56 5.56"/>
<path d="M588.014 629.124L586.611 611.027L559.216 613.499L558.336 629.881L572.159 645.721L588.014 629.124Z" fill="#F0C9B9"/>
<path d="M557.585 626.984C557.585 626.984 553.975 654.071 556.947 654.303L627.076 654.871C627.076 654.871 622.211 642.267 608.69 639.965C588.278 636.49 589.963 627.047 589.963 627.047L572.082 642.87L557.585 626.984Z" fill="#272327"/>
<path d="M444.371 463.411V463.415C444.371 490.941 466.474 513.255 493.739 513.255H547.495C550.633 513.255 552.92 516.257 552.113 519.32L556.471 619.003C556.31 619.615 556.767 620.216 557.394 620.216H576.085C576.461 620.216 587.426 621.038 587.58 620.691L602.144 493.226C607.716 480.605 598.727 466.334 585.042 466.075L444.371 463.411Z" fill="#444968"/>
<path d="M475.577 464.845C475.577 464.845 470.719 494.97 498.9 493.999C514.563 493.459 539.832 493.819 559.19 494.246C572.948 494.549 582.696 507.789 578.916 521.019L571.873 619.434" stroke="white" stroke-width="0.3196" stroke-miterlimit="10"/>
<path d="M630.735 358.388L645.437 335.621L634.014 323.641C634.014 323.641 639.308 308.596 638.75 306.089C637.535 300.622 611.394 344.486 611.394 344.486L592.348 363.403L615.169 385.609L630.735 358.388Z" fill="#F0C9B9"/>
<path d="M622.114 328.44C623.752 329.24 625.39 330.04 627.028 330.84C628.029 331.329 631.096 332.368 629.441 333.888C628.865 334.417 627.994 334.549 627.257 334.699C626.303 334.894 625.341 335.042 624.372 335.139C622.578 335.318 620.773 335.328 618.977 335.186C618.47 335.146 618.473 335.935 618.977 335.976C621.134 336.148 623.3 336.092 625.444 335.802C626.437 335.668 627.446 335.512 628.414 335.245C629.181 335.034 629.941 334.681 630.381 333.984C630.777 333.358 630.823 332.571 630.39 331.952C629.928 331.292 629.105 330.977 628.41 330.637C626.444 329.678 624.479 328.718 622.513 327.758C622.058 327.537 621.657 328.218 622.114 328.44Z" fill="#D18362"/>
<path d="M633.319 323.939C631.774 325.974 630.432 328.155 629.31 330.45C629.087 330.905 629.768 331.306 629.992 330.849C631.115 328.554 632.457 326.373 634.003 324.338C634.309 323.933 633.624 323.539 633.319 323.939Z" fill="#D18362"/>
<path d="M627.948 335.012C627.702 336.122 628.585 337.095 629.646 337.302C630.933 337.553 632.096 336.648 632.968 335.82C634.993 333.896 636.648 331.585 637.853 329.068C638.071 328.612 637.39 328.211 637.171 328.669C636.195 330.709 634.931 332.598 633.395 334.26C632.684 335.03 631.895 335.924 630.917 336.356C630.41 336.578 629.855 336.637 629.357 336.366C628.941 336.141 628.601 335.715 628.709 335.223C628.82 334.726 628.059 334.514 627.948 335.012Z" fill="#D18362"/>
<path d="M630.583 337.12C630.705 337.977 630.928 338.81 631.259 339.61C631.522 340.245 631.827 340.956 632.308 341.461C633.365 342.575 634.929 341.583 635.873 340.813C637.033 339.866 637.885 338.597 638.743 337.384C639.818 335.861 640.894 334.337 641.969 332.814C642.263 332.398 641.579 332.002 641.287 332.415C640.41 333.656 639.534 334.898 638.657 336.139C637.863 337.264 637.105 338.44 636.164 339.45C635.518 340.142 633.693 341.919 632.799 340.817C631.943 339.762 631.533 338.226 631.345 336.909C631.273 336.408 630.512 336.622 630.583 337.12Z" fill="#D18362"/>
<path d="M635.272 340.708C635.474 342.073 636.521 343.264 637.846 343.647C639.202 344.039 640.757 343.54 641.644 342.448C641.963 342.057 641.406 341.494 641.086 341.889C640.368 342.772 639.165 343.205 638.056 342.885C636.973 342.572 636.197 341.597 636.034 340.498C636.002 340.286 635.736 340.173 635.547 340.222C635.321 340.282 635.241 340.498 635.272 340.708Z" fill="#D18362"/>
<path d="M541.889 461.135C541.889 461.135 523.622 335.211 518.961 327.371C518.961 327.371 529.768 321.65 544.176 351.951C558.586 382.252 560.625 391.025 560.625 391.025L592.348 358.471L618.253 385.61L560.625 460.531L543.703 462.344" fill="#DE4A54"/>
<path d="M470.563 319.293C470.563 319.293 436.613 330.114 432.329 363.404C428.046 396.694 447.554 482.093 447.554 482.093C447.554 482.093 468.306 473.29 476.868 470.94C489.526 467.466 498.998 467.279 508.024 467.121L545.37 466.468L532.153 353.573C530.175 345.078 529.118 332.871 521.384 328L508.325 320.101L482.47 313.46L470.563 319.293Z" fill="#F26D76"/>
<path d="M546.514 459.984C536.663 440.284 458.9 332.629 460.249 324.097C449.885 330.064 435.064 342.148 432.329 363.403C428.046 396.693 447.554 482.093 447.554 482.093C447.554 482.093 468.306 473.291 476.868 470.941C489.526 467.467 498.998 467.279 508.024 467.121L550.401 466.788C551.372 465.815 546.999 460.957 546.514 459.984Z" fill="#DE4A54"/>
<path d="M506.612 433.72L536.835 442.356C536.835 442.356 565.824 450.991 573.843 464.561L504.762 462.71L506.612 433.72Z" fill="#F0C9B9"/>
<path d="M472.688 321.462C465.001 316.589 435.684 332.881 429.327 364.242C422.877 397.865 434.281 464.681 445.273 468.707C456.266 472.733 503.528 467.645 503.528 467.645C503.528 467.645 505.77 437.897 507.228 428.787L469.603 427.553C469.603 427.553 478.154 381.59 472.688 321.462Z" fill="#F26D76"/>
<path d="M558.35 462.052H496.535V469.301H558.35V462.052Z" fill="#060B0F"/>
<path d="M496.535 462.052H536.926L533.748 469.302H496.535V462.052Z" fill="#272327"/>
<path d="M635.622 469.302H538.195L561.711 402.111H659.138L635.622 469.302Z" fill="#272327"/>
<path d="M604.397 437.594C604.397 434.215 601.659 431.477 598.281 431.477C594.902 431.477 592.164 434.215 592.164 437.594C592.164 440.972 594.902 443.71 598.281 443.71C601.658 443.71 604.397 440.972 604.397 437.594Z" fill="#6E626E"/>
<path d="M486.484 288.68L481.527 312.21L490.573 322.49C504.653 337.682 506.61 327.63 509.249 326.353L507.435 298.752L494.316 293.516L486.484 288.68Z" fill="#F0C9B9"/>
<path d="M494.319 293.518L507.438 300.768C507.438 300.768 508.848 313.461 505.021 313.863C501.819 314.2 490.788 303.928 491.926 296.133" fill="#D18362"/>
<path d="M486.384 291.85C486.384 291.85 484.62 282.095 486.837 284.824L492.724 262.935C492.724 262.935 496.412 267.167 500.017 269.659C503.622 272.151 512.067 270.752 514.297 269.771C516.527 268.79 515.604 258.609 515.604 258.609C515.604 258.609 524.826 250.577 523.347 247.688C521.867 244.799 515.058 250.663 515.058 250.663C515.058 250.663 522.387 242.339 518.703 240.006C511.381 235.37 485.666 248.261 485.666 248.261C485.666 248.261 472.367 252.151 478.725 259.624C478.725 259.624 471.648 295.989 485.061 292.605" fill="#272327"/>
<path d="M516.336 258.258C520.733 291.301 519.508 301.114 516.417 303.675C511.969 307.36 503.899 305.135 499.973 303.641C493.53 301.191 488.98 294.349 487.566 292.315C486.868 291.312 478.744 292.989 479.84 285.265C480.648 279.574 483.677 281.392 485.215 282.744C485.664 283.139 486.368 282.949 486.559 282.383C487.699 279.016 491.398 266.312 492.619 262.242C493.148 260.477 500.88 260.751 501.645 260.639C508.318 259.667 514.316 259.85 516.027 258.501L516.336 258.258Z" fill="#F0C9B9"/>
<path d="M517.259 287.749C517.259 287.749 514.775 289.095 508.547 288.797C508.547 288.797 512.077 293.069 514.484 292.107C516.891 291.144 517.259 287.749 517.259 287.749Z" fill="white"/>
<path d="M481.039 284.641L485.5 287.635C485.5 287.635 483.552 280.006 481.039 284.641Z" fill="#D49C85"/>
<path d="M511.798 279.021C511.839 279.943 511.497 280.706 511.037 280.727C510.575 280.747 510.169 280.016 510.128 279.094C510.087 278.172 510.429 277.408 510.89 277.388C511.352 277.367 511.757 278.098 511.798 279.021Z" fill="#13223B"/>
<path d="M517.196 277.966C517.236 278.889 516.895 279.652 516.434 279.672C515.973 279.692 515.566 278.961 515.527 278.04C515.486 277.118 515.828 276.354 516.288 276.333C516.749 276.312 517.156 277.044 517.196 277.966Z" fill="#13223B"/>
<path d="M504.723 271.16C503.523 272.058 505.29 268.156 506.953 267.657C508.616 267.158 510.313 267.918 510.744 269.353C510.744 269.353 507.605 269.002 504.723 271.16Z" fill="#13223B"/>
<path d="M517.925 271.186C516.142 271.038 514.883 271.401 514.883 271.401C515.053 270.016 516.318 268.997 517.855 268.889" fill="#13223B"/>
<path d="M514.641 278.03L517.496 284.991C517.542 285.104 517.472 285.232 517.358 285.246L514.364 285.599C514.261 285.612 514.17 285.523 514.172 285.413L514.311 278.097C514.314 277.9 514.566 277.849 514.641 278.03Z" fill="#D49C85"/>
<path d="M475.152 315.912C475.152 314.987 480.396 304.81 480.396 304.81L506.918 327.631L505.684 343.976L475.152 315.912Z" fill="white"/>
<path d="M506.918 327.631L508.666 312.828L516.273 324.958L513.395 341.818L506.918 327.631Z" fill="white"/>
<defs>
<linearGradient id="paint0_linear_88_246" x1="-8.76345e-05" y1="500" x2="1000" y2="500" gradientUnits="userSpaceOnUse">
<stop stop-color="#1C51BC"/>
<stop offset="0.1329" stop-color="#1D54BD"/>
<stop offset="0.2128" stop-color="#1F5CC1"/>
<stop offset="0.2787" stop-color="#226AC7"/>
<stop offset="0.337" stop-color="#277FD0"/>
<stop offset="0.3903" stop-color="#2D99DB"/>
<stop offset="0.4399" stop-color="#34B9E9"/>
<stop offset="0.4858" stop-color="#3DDFF9"/>
<stop offset="0.5" stop-color="#40ECFF"/>
<stop offset="0.5162" stop-color="#48D8F9"/>
<stop offset="0.5558" stop-color="#59ADEB"/>
<stop offset="0.5985" stop-color="#6986DF"/>
<stop offset="0.6438" stop-color="#7566D5"/>
<stop offset="0.6925" stop-color="#804CCC"/>
<stop offset="0.7457" stop-color="#8837C6"/>
<stop offset="0.8058" stop-color="#8E29C1"/>
<stop offset="0.8788" stop-color="#9121BF"/>
<stop offset="1" stop-color="#921EBE"/>
</linearGradient>
</defs>
</svg>
