<svg width="1580" height="719" viewBox="0 0 1580 719" fill="none" xmlns="http://www.w3.org/2000/svg">
<path d="M844.276 220.838C837.13 220.244 830.396 221.888 824.694 225.144C803.716 237.124 459.32 244.278 459.32 244.278H411L389 365.5L316 4C315.107 -1.284 292.667 -1.092 291 4L235 239H203.5C176.667 239 80.4077 237.881 56.9197 224.908C51.2451 221.773 44.5797 220.224 37.5211 220.858C21.7011 222.281 8.80106 234.874 7.03706 250.661C4.76106 271.032 20.7131 288.348 40.6344 288.348C46.1224 288.348 51.3091 287.033 55.8971 284.702C78.8504 273.042 171.075 277 196.82 277H278.82L300.5 177.5L335 365.5L376.82 571.161C377.783 576.853 397.189 576.85 398.168 571.161L459.32 288.348C459.32 288.348 496.481 286.369 584.5 283.746C671.439 281.156 814.366 277.883 824.39 283.746C829.39 286.67 835.204 288.348 841.402 288.348C861.322 288.348 877.274 271.033 875 250.664C873.228 234.788 860.196 222.16 844.276 220.838Z" fill="url(#paint0_linear_82_40)"/>
<path d="M578 578.6C560.6 578.6 544.7 574.4 530.3 566C515.9 557.6 504.4 546.3 495.8 532.1C487.4 517.9 483.2 502.2 483.2 485C483.2 467.6 487.4 451.9 495.8 437.9C504.4 423.7 515.9 412.4 530.3 404C544.7 395.6 560.6 391.4 578 391.4C595.6 391.4 611.5 395.6 625.7 404C640.1 412.4 651.5 423.7 659.9 437.9C668.5 451.9 672.8 467.6 672.8 485C672.8 502.2 668.5 517.9 659.9 532.1C651.5 546.3 640.1 557.6 625.7 566C611.5 574.4 595.6 578.6 578 578.6ZM578 548C589.6 548 600.1 545.2 609.5 539.6C618.9 533.8 626.4 526.2 632 516.8C637.6 507.2 640.4 496.6 640.4 485C640.4 473.4 637.6 462.9 632 453.5C626.4 443.9 618.9 436.3 609.5 430.7C600.1 424.9 589.6 422 578 422C566.4 422 555.9 424.9 546.5 430.7C537.1 436.3 529.6 443.9 524 453.5C518.4 462.9 515.6 473.4 515.6 485C515.6 496.6 518.4 507.2 524 516.8C529.6 526.2 537.1 533.8 546.5 539.6C555.9 545.2 566.4 548 578 548ZM800.506 578.6C782.906 578.6 766.906 574.4 752.506 566C738.106 557.6 726.606 546.3 718.006 532.1C709.406 517.9 705.106 502.2 705.106 485C705.106 467.8 709.406 452.1 718.006 437.9C726.606 423.7 738.106 412.4 752.506 404C766.906 395.6 782.906 391.4 800.506 391.4C813.506 391.4 825.706 393.7 837.106 398.3C848.506 402.9 858.506 409 867.106 416.6L857.206 457.4C852.206 447.4 844.606 439 834.406 432.2C824.406 425.4 813.006 422 800.206 422C788.606 422 778.006 424.9 768.406 430.7C759.006 436.3 751.506 443.9 745.906 453.5C740.306 462.9 737.506 473.4 737.506 485C737.506 496.4 740.306 506.9 745.906 516.5C751.506 526.1 759.006 533.8 768.406 539.6C778.006 545.2 788.606 548 800.206 548C813.006 548 824.406 544.7 834.406 538.1C844.606 531.5 852.206 523 857.206 512.6L867.106 553.4C858.506 561 848.506 567.1 837.106 571.7C825.706 576.3 813.506 578.6 800.506 578.6ZM983.806 577.4C967.406 577.4 952.406 573.3 938.806 565.1C925.206 556.7 914.306 545.5 906.106 531.5C898.106 517.5 894.106 502 894.106 485C894.106 468 898.106 452.5 906.106 438.5C914.306 424.5 925.206 413.4 938.806 405.2C952.406 396.8 967.406 392.6 983.806 392.6C996.206 392.6 1007.81 394.9 1018.61 399.5C1029.61 404.1 1039.11 410.5 1047.11 418.7V395H1077.11V575H1047.11V551.3C1039.11 559.3 1029.61 565.7 1018.61 570.5C1007.81 575.1 996.206 577.4 983.806 577.4ZM988.006 548C999.406 548 1009.71 545.2 1018.91 539.6C1028.31 533.8 1035.71 526.2 1041.11 516.8C1046.71 507.2 1049.51 496.6 1049.51 485C1049.51 473.4 1046.71 462.9 1041.11 453.5C1035.71 443.9 1028.31 436.3 1018.91 430.7C1009.71 424.9 999.406 422 988.006 422C976.606 422 966.206 424.9 956.806 430.7C947.606 436.3 940.206 443.9 934.606 453.5C929.206 462.9 926.506 473.4 926.506 485C926.506 496.6 929.206 507.2 934.606 516.8C940.206 526.2 947.606 533.8 956.806 539.6C966.206 545.2 976.606 548 988.006 548ZM1134.52 575V287H1166.92V575H1134.52ZM1391.34 577.4C1374.94 577.4 1359.94 573.3 1346.34 565.1C1332.74 556.7 1321.84 545.5 1313.64 531.5C1305.64 517.5 1301.64 502 1301.64 485C1301.64 468 1305.64 452.5 1313.64 438.5C1321.84 424.5 1332.74 413.4 1346.34 405.2C1359.94 396.8 1374.94 392.6 1391.34 392.6C1403.74 392.6 1415.34 394.9 1426.14 399.5C1437.14 404.1 1446.64 410.5 1454.64 418.7V395H1484.64V575H1454.64V551.3C1446.64 559.3 1437.14 565.7 1426.14 570.5C1415.34 575.1 1403.74 577.4 1391.34 577.4ZM1395.54 548C1406.94 548 1417.24 545.2 1426.44 539.6C1435.84 533.8 1443.24 526.2 1448.64 516.8C1454.24 507.2 1457.04 496.6 1457.04 485C1457.04 473.4 1454.24 462.9 1448.64 453.5C1443.24 443.9 1435.84 436.3 1426.44 430.7C1417.24 424.9 1406.94 422 1395.54 422C1384.14 422 1373.74 424.9 1364.34 430.7C1355.14 436.3 1347.74 443.9 1342.14 453.5C1336.74 462.9 1334.04 473.4 1334.04 485C1334.04 496.6 1336.74 507.2 1342.14 516.8C1347.74 526.2 1355.14 533.8 1364.34 539.6C1373.74 545.2 1384.14 548 1395.54 548ZM1542.05 575V395H1574.45V575H1542.05ZM1558.25 362.6C1552.25 362.6 1547.15 360.5 1542.95 356.3C1538.75 352.1 1536.65 347 1536.65 341C1536.65 334.8 1538.75 329.7 1542.95 325.7C1547.15 321.5 1552.25 319.4 1558.25 319.4C1564.45 319.4 1569.55 321.5 1573.55 325.7C1577.75 329.7 1579.85 334.8 1579.85 341C1579.85 347 1577.75 352.1 1573.55 356.3C1569.55 360.5 1564.45 362.6 1558.25 362.6Z" fill="black"/>
<path d="M578 578.6C560.6 578.6 544.7 574.4 530.3 566C515.9 557.6 504.4 546.3 495.8 532.1C487.4 517.9 483.2 502.2 483.2 485C483.2 467.6 487.4 451.9 495.8 437.9C504.4 423.7 515.9 412.4 530.3 404C544.7 395.6 560.6 391.4 578 391.4C595.6 391.4 611.5 395.6 625.7 404C640.1 412.4 651.5 423.7 659.9 437.9C668.5 451.9 672.8 467.6 672.8 485C672.8 502.2 668.5 517.9 659.9 532.1C651.5 546.3 640.1 557.6 625.7 566C611.5 574.4 595.6 578.6 578 578.6ZM578 548C589.6 548 600.1 545.2 609.5 539.6C618.9 533.8 626.4 526.2 632 516.8C637.6 507.2 640.4 496.6 640.4 485C640.4 473.4 637.6 462.9 632 453.5C626.4 443.9 618.9 436.3 609.5 430.7C600.1 424.9 589.6 422 578 422C566.4 422 555.9 424.9 546.5 430.7C537.1 436.3 529.6 443.9 524 453.5C518.4 462.9 515.6 473.4 515.6 485C515.6 496.6 518.4 507.2 524 516.8C529.6 526.2 537.1 533.8 546.5 539.6C555.9 545.2 566.4 548 578 548ZM800.506 578.6C782.906 578.6 766.906 574.4 752.506 566C738.106 557.6 726.606 546.3 718.006 532.1C709.406 517.9 705.106 502.2 705.106 485C705.106 467.8 709.406 452.1 718.006 437.9C726.606 423.7 738.106 412.4 752.506 404C766.906 395.6 782.906 391.4 800.506 391.4C813.506 391.4 825.706 393.7 837.106 398.3C848.506 402.9 858.506 409 867.106 416.6L857.206 457.4C852.206 447.4 844.606 439 834.406 432.2C824.406 425.4 813.006 422 800.206 422C788.606 422 778.006 424.9 768.406 430.7C759.006 436.3 751.506 443.9 745.906 453.5C740.306 462.9 737.506 473.4 737.506 485C737.506 496.4 740.306 506.9 745.906 516.5C751.506 526.1 759.006 533.8 768.406 539.6C778.006 545.2 788.606 548 800.206 548C813.006 548 824.406 544.7 834.406 538.1C844.606 531.5 852.206 523 857.206 512.6L867.106 553.4C858.506 561 848.506 567.1 837.106 571.7C825.706 576.3 813.506 578.6 800.506 578.6ZM983.806 577.4C967.406 577.4 952.406 573.3 938.806 565.1C925.206 556.7 914.306 545.5 906.106 531.5C898.106 517.5 894.106 502 894.106 485C894.106 468 898.106 452.5 906.106 438.5C914.306 424.5 925.206 413.4 938.806 405.2C952.406 396.8 967.406 392.6 983.806 392.6C996.206 392.6 1007.81 394.9 1018.61 399.5C1029.61 404.1 1039.11 410.5 1047.11 418.7V395H1077.11V575H1047.11V551.3C1039.11 559.3 1029.61 565.7 1018.61 570.5C1007.81 575.1 996.206 577.4 983.806 577.4ZM988.006 548C999.406 548 1009.71 545.2 1018.91 539.6C1028.31 533.8 1035.71 526.2 1041.11 516.8C1046.71 507.2 1049.51 496.6 1049.51 485C1049.51 473.4 1046.71 462.9 1041.11 453.5C1035.71 443.9 1028.31 436.3 1018.91 430.7C1009.71 424.9 999.406 422 988.006 422C976.606 422 966.206 424.9 956.806 430.7C947.606 436.3 940.206 443.9 934.606 453.5C929.206 462.9 926.506 473.4 926.506 485C926.506 496.6 929.206 507.2 934.606 516.8C940.206 526.2 947.606 533.8 956.806 539.6C966.206 545.2 976.606 548 988.006 548ZM1134.52 575V287H1166.92V575H1134.52ZM1391.34 577.4C1374.94 577.4 1359.94 573.3 1346.34 565.1C1332.74 556.7 1321.84 545.5 1313.64 531.5C1305.64 517.5 1301.64 502 1301.64 485C1301.64 468 1305.64 452.5 1313.64 438.5C1321.84 424.5 1332.74 413.4 1346.34 405.2C1359.94 396.8 1374.94 392.6 1391.34 392.6C1403.74 392.6 1415.34 394.9 1426.14 399.5C1437.14 404.1 1446.64 410.5 1454.64 418.7V395H1484.64V575H1454.64V551.3C1446.64 559.3 1437.14 565.7 1426.14 570.5C1415.34 575.1 1403.74 577.4 1391.34 577.4ZM1395.54 548C1406.94 548 1417.24 545.2 1426.44 539.6C1435.84 533.8 1443.24 526.2 1448.64 516.8C1454.24 507.2 1457.04 496.6 1457.04 485C1457.04 473.4 1454.24 462.9 1448.64 453.5C1443.24 443.9 1435.84 436.3 1426.44 430.7C1417.24 424.9 1406.94 422 1395.54 422C1384.14 422 1373.74 424.9 1364.34 430.7C1355.14 436.3 1347.74 443.9 1342.14 453.5C1336.74 462.9 1334.04 473.4 1334.04 485C1334.04 496.6 1336.74 507.2 1342.14 516.8C1347.74 526.2 1355.14 533.8 1364.34 539.6C1373.74 545.2 1384.14 548 1395.54 548ZM1542.05 575V395H1574.45V575H1542.05ZM1558.25 362.6C1552.25 362.6 1547.15 360.5 1542.95 356.3C1538.75 352.1 1536.65 347 1536.65 341C1536.65 334.8 1538.75 329.7 1542.95 325.7C1547.15 321.5 1552.25 319.4 1558.25 319.4C1564.45 319.4 1569.55 321.5 1573.55 325.7C1577.75 329.7 1579.85 334.8 1579.85 341C1579.85 347 1577.75 352.1 1573.55 356.3C1569.55 360.5 1564.45 362.6 1558.25 362.6Z" fill="black" fill-opacity="0.2"/>
<defs>
<linearGradient id="paint0_linear_82_40" x1="6.82026" y1="287.77" x2="875.216" y2="287.77" gradientUnits="userSpaceOnUse">
<stop stop-color="#1B4CB1"/>
<stop offset="0.1361" stop-color="#1C4FB2"/>
<stop offset="0.2179" stop-color="#1E57B6"/>
<stop offset="0.2854" stop-color="#2165BC"/>
<stop offset="0.3451" stop-color="#2679C5"/>
<stop offset="0.3996" stop-color="#2C94D0"/>
<stop offset="0.4498" stop-color="#33B4DE"/>
<stop offset="0.4968" stop-color="#3CD9EE"/>
<stop offset="0.5" stop-color="#3DDCEF"/>
<stop offset="0.5043" stop-color="#3FD7ED"/>
<stop offset="0.5449" stop-color="#50ACE0"/>
<stop offset="0.5887" stop-color="#6085D4"/>
<stop offset="0.6351" stop-color="#6C65CA"/>
<stop offset="0.6849" stop-color="#774BC1"/>
<stop offset="0.7394" stop-color="#7F36BB"/>
<stop offset="0.801" stop-color="#8528B6"/>
<stop offset="0.8758" stop-color="#8820B4"/>
<stop offset="1" stop-color="#891DB3"/>
</linearGradient>
</defs>
</svg>
