<svg width="128" height="128" viewBox="0 0 128 128" fill="none" xmlns="http://www.w3.org/2000/svg">
<path d="M119.246 76.079C118.425 75.257 117.449 74.6049 116.376 74.16C115.302 73.7151 114.151 73.4861 112.989 73.4861C111.827 73.4861 110.676 73.7151 109.603 74.16C108.529 74.6049 107.554 75.257 106.732 76.079L91.0621 91.749C90.4237 90.0749 89.2925 88.6338 87.8179 87.6161C86.3433 86.5985 84.5947 86.052 82.8031 86.049H62.6881L58.4461 81.649C56.7822 79.9298 54.7905 78.5617 52.5886 77.6258C50.3868 76.6898 48.0196 76.205 45.6271 76.2H28.8631V73.88C28.8628 73.416 28.6783 72.971 28.3502 72.6429C28.0221 72.3147 27.5771 72.1303 27.1131 72.13H7.91406C7.44993 72.13 7.00481 72.3144 6.67663 72.6426C6.34844 72.9708 6.16406 73.4159 6.16406 73.88C6.16406 74.3441 6.34844 74.7893 6.67663 75.1174C7.00481 75.4456 7.44993 75.63 7.91406 75.63H25.3631V119.943H7.91406C7.44993 119.943 7.00481 120.127 6.67663 120.456C6.34844 120.784 6.16406 121.229 6.16406 121.693C6.16406 122.157 6.34844 122.602 6.67663 122.93C7.00481 123.259 7.44993 123.443 7.91406 123.443H27.1141C27.5781 123.443 28.0231 123.258 28.3512 122.93C28.6793 122.602 28.8638 122.157 28.8641 121.693V119.378H83.4941C85.0694 119.382 86.6299 119.074 88.0853 118.471C89.5407 117.868 90.8621 116.983 91.9731 115.866L119.246 88.592C120.068 87.7705 120.72 86.7951 121.164 85.7216C121.609 84.6481 121.838 83.4975 121.838 82.3355C121.838 81.1735 121.609 80.0229 121.164 78.9494C120.72 77.8759 120.068 76.9006 119.246 76.079ZM116.771 86.118L89.5011 113.391C88.7149 114.181 87.7799 114.808 86.75 115.235C85.7202 115.662 84.6159 115.881 83.5011 115.878H28.8631V79.7H45.6271C47.5494 79.7038 49.4515 80.0932 51.2207 80.8452C52.9899 81.5972 54.5903 82.6965 55.9271 84.078L60.6861 89.018C60.8494 89.1872 61.0451 89.3218 61.2616 89.4137C61.4781 89.5057 61.7109 89.553 61.9461 89.553H82.8011C84.22 89.553 85.5808 90.1167 86.5841 91.12C87.5874 92.1233 88.1511 93.4841 88.1511 94.903C88.1511 96.3219 87.5874 97.6827 86.5841 98.686C85.5808 99.6893 84.22 100.253 82.8011 100.253H57.4801C57.0159 100.253 56.5708 100.437 56.2426 100.766C55.9144 101.094 55.7301 101.539 55.7301 102.003C55.7301 102.467 55.9144 102.912 56.2426 103.24C56.5708 103.569 57.0159 103.753 57.4801 103.753H82.8011C84.917 103.749 86.9616 102.988 88.5647 101.607C90.1677 100.226 91.2232 98.3161 91.5401 96.224L109.205 78.559C109.701 78.0576 110.291 77.6591 110.941 77.3865C111.591 77.1139 112.289 76.9725 112.994 76.9705C113.699 76.9685 114.397 77.1059 115.049 77.3748C115.701 77.6437 116.293 78.0388 116.792 78.5374C117.29 79.036 117.685 79.6282 117.954 80.28C118.223 80.9318 118.36 81.6304 118.358 82.3354C118.356 83.0405 118.214 83.7382 117.942 84.3883C117.669 85.0385 117.271 85.6284 116.769 86.124L116.771 86.118Z" fill="#2677CC"/>
<path d="M67.8125 55.8481L65.7695 58.3731C67.5918 60.0653 69.9084 61.129 72.3795 61.4081V63.3081H74.9605V61.4931C79.0735 61.2091 81.4285 58.8271 81.4285 55.5641C81.4285 52.1041 78.8475 50.7711 74.9605 49.8921V44.5591C76.4593 44.9218 77.8438 45.6529 78.9885 46.6861L80.9175 44.0761C79.2598 42.5906 77.1747 41.6676 74.9605 41.4391V39.6801H72.3795V41.4101C68.8905 41.8351 66.5355 44.1901 66.5355 47.2531C66.5355 50.6011 68.8905 51.8531 72.3795 52.7531V58.2851C70.6645 57.9014 69.086 57.0591 67.8125 55.8481ZM74.9605 53.4091C76.9745 54.0041 77.8825 54.6001 77.8825 55.9091C77.8825 57.1571 76.8905 58.2351 74.9605 58.4621V53.4091ZM70.1095 46.9411C70.1563 46.3375 70.4062 45.7676 70.8185 45.3243C71.2307 44.881 71.781 44.5905 72.3795 44.5001V49.2101C70.8485 48.6721 70.1095 48.0761 70.1095 46.9411Z" fill="#2677CC"/>
<path d="M73.6023 77.4431C78.7345 77.4429 83.7514 75.9208 88.0186 73.0694C92.2857 70.2179 95.6115 66.1652 97.5754 61.4236C99.5392 56.682 100.053 51.4646 99.0516 46.431C98.0503 41.3975 95.5788 36.7739 91.9497 33.145C88.3206 29.5161 83.697 27.0448 78.6634 26.0436C73.6298 25.0424 68.4124 25.5564 63.6709 27.5204C58.9294 29.4844 54.8767 32.8104 52.0255 37.0777C49.1742 41.3449 47.6523 46.3619 47.6523 51.4941C47.6603 58.3739 50.3969 64.9697 55.2618 69.8344C60.1266 74.699 66.7225 77.4354 73.6023 77.4431ZM73.6023 29.0431C78.0422 29.0433 82.3823 30.36 86.0739 32.8267C89.7654 35.2935 92.6426 38.7995 94.3416 42.9014C96.0406 47.0033 96.4852 51.517 95.619 55.8715C94.7529 60.2261 92.6149 64.226 89.4755 67.3655C86.3361 70.5051 82.3363 72.6432 77.9818 73.5095C73.6273 74.3759 69.1136 73.9315 65.0116 72.2327C60.9096 70.5339 57.4035 67.6568 54.9366 63.9654C52.4697 60.274 51.1527 55.9339 51.1523 51.4941C51.1592 45.5421 53.5267 39.836 57.7355 35.6275C61.9442 31.4189 67.6504 29.0517 73.6023 29.0451V29.0431Z" fill="#2677CC"/>
<path d="M73.601 69.845C77.2305 69.845 80.7785 68.7687 83.7963 66.7523C86.8141 64.7358 89.1662 61.8698 90.5551 58.5166C91.9441 55.1634 92.3075 51.4736 91.5994 47.9139C90.8913 44.3541 89.1436 41.0843 86.5771 38.5178C84.0107 35.9514 80.7408 34.2036 77.1811 33.4956C73.6214 32.7875 69.9316 33.1509 66.5784 34.5398C63.2252 35.9288 60.3591 38.2809 58.3427 41.2987C56.3263 44.3165 55.25 47.8645 55.25 51.494C55.2553 56.3593 57.1904 61.0239 60.6307 64.4642C64.0711 67.9046 68.7356 69.8397 73.601 69.845ZM73.601 36.645C76.5383 36.645 79.4096 37.516 81.8519 39.1479C84.2941 40.7798 86.1976 43.0992 87.3216 45.813C88.4456 48.5267 88.7397 51.5128 88.1666 54.3936C87.5935 57.2744 86.1789 59.9206 84.1019 61.9975C82.0248 64.0745 79.3786 65.4888 76.4977 66.0617C73.6168 66.6346 70.6307 66.3404 67.9171 65.2162C65.2034 64.092 62.8841 62.1884 61.2524 59.746C59.6206 57.3036 58.7498 54.4322 58.75 51.495C58.7542 47.5575 60.3202 43.7826 63.1044 40.9984C65.8886 38.2142 69.6636 36.6492 73.601 36.645Z" fill="#2677CC"/>
<path d="M73.6016 21.648C74.0657 21.648 74.5108 21.4637 74.839 21.1355C75.1672 20.8073 75.3516 20.3622 75.3516 19.898V15.061C75.3516 14.5969 75.1672 14.1518 74.839 13.8236C74.5108 13.4954 74.0657 13.311 73.6016 13.311C73.1374 13.311 72.6923 13.4954 72.3641 13.8236C72.0359 14.1518 71.8516 14.5969 71.8516 15.061V19.9C71.8517 20.1297 71.8971 20.3571 71.9851 20.5693C72.0731 20.7814 72.202 20.9742 72.3645 21.1365C72.527 21.2988 72.7199 21.4275 72.9322 21.5153C73.1444 21.6031 73.3719 21.6482 73.6016 21.648Z" fill="#2677CC"/>
<path d="M73.6016 10.237C74.0657 10.237 74.5108 10.0526 74.839 9.72444C75.1672 9.39625 75.3516 8.95114 75.3516 8.48701V6.30701C75.3516 5.84288 75.1672 5.39776 74.839 5.06957C74.5108 4.74138 74.0657 4.55701 73.6016 4.55701C73.1374 4.55701 72.6923 4.74138 72.3641 5.06957C72.0359 5.39776 71.8516 5.84288 71.8516 6.30701V8.48701C71.8514 8.71686 71.8966 8.94448 71.9845 9.15686C72.0724 9.36924 72.2013 9.56221 72.3638 9.72474C72.5264 9.88727 72.7193 10.0162 72.9317 10.1041C73.1441 10.192 73.3717 10.2371 73.6016 10.237Z" fill="#2677CC"/>
<path d="M61 24.6001C61.464 24.5998 61.909 24.4153 62.2371 24.0872C62.5653 23.7591 62.7497 23.3141 62.75 22.8501V18.0131C62.75 17.5489 62.5656 17.1038 62.2374 16.7756C61.9092 16.4474 61.4641 16.2631 61 16.2631C60.5359 16.2631 60.0908 16.4474 59.7626 16.7756C59.4344 17.1038 59.25 17.5489 59.25 18.0131V22.8511C59.2505 23.3149 59.4351 23.7596 59.7632 24.0876C60.0913 24.4155 60.5361 24.5998 61 24.6001Z" fill="#2677CC"/>
<path d="M61 13.189C61.464 13.1888 61.909 13.0043 62.2371 12.6762C62.5653 12.348 62.7497 11.9031 62.75 11.439V9.25903C62.75 8.7949 62.5656 8.34979 62.2374 8.0216C61.9092 7.69341 61.4641 7.50903 61 7.50903C60.5359 7.50903 60.0908 7.69341 59.7626 8.0216C59.4344 8.34979 59.25 8.7949 59.25 9.25903V11.439C59.2503 11.9031 59.4347 12.348 59.7629 12.6762C60.091 13.0043 60.536 13.1888 61 13.189Z" fill="#2677CC"/>
<path d="M86.1992 24.6001C86.6633 24.6001 87.1085 24.4157 87.4367 24.0875C87.7648 23.7593 87.9492 23.3142 87.9492 22.8501V18.0131C87.9492 17.5489 87.7648 17.1038 87.4367 16.7756C87.1085 16.4474 86.6633 16.2631 86.1992 16.2631C85.7351 16.2631 85.29 16.4474 84.9618 16.7756C84.6336 17.1038 84.4492 17.5489 84.4492 18.0131V22.8511C84.4495 23.315 84.634 23.7599 84.9621 24.0879C85.2903 24.4158 85.7353 24.6001 86.1992 24.6001Z" fill="#2677CC"/>
<path d="M86.1992 13.189C86.6633 13.189 87.1085 13.0047 87.4367 12.6765C87.7648 12.3483 87.9492 11.9032 87.9492 11.439V9.25903C87.9492 8.7949 87.7648 8.34979 87.4367 8.0216C87.1085 7.69341 86.6633 7.50903 86.1992 7.50903C85.7351 7.50903 85.29 7.69341 84.9618 8.0216C84.6336 8.34979 84.4492 8.7949 84.4492 9.25903V11.439C84.4492 11.9032 84.6336 12.3483 84.9618 12.6765C85.29 13.0047 85.7351 13.189 86.1992 13.189Z" fill="#2677CC"/>
</svg>
