<svg width="257" height="256" viewBox="0 0 257 256" fill="none" xmlns="http://www.w3.org/2000/svg">
<path d="M216.024 91.6411C216.024 83.9561 209.773 77.7051 202.088 77.7051C194.403 77.7051 188.152 83.9561 188.152 91.6411C188.152 99.3261 194.403 105.577 202.088 105.577C209.773 105.577 216.024 99.3251 216.024 91.6411ZM193.153 91.6411C193.153 86.7141 197.162 82.7051 202.089 82.7051C207.016 82.7051 211.025 86.7141 211.025 91.6411C211.025 96.5681 207.016 100.577 202.089 100.577C197.162 100.577 193.153 96.5671 193.153 91.6411Z" fill="#2677CC"/>
<path d="M68.8447 91.6411C68.8447 83.9561 62.5937 77.7051 54.9087 77.7051C47.2237 77.7051 40.9727 83.9561 40.9727 91.6411C40.9727 99.3261 47.2237 105.577 54.9087 105.577C62.5937 105.577 68.8447 99.3251 68.8447 91.6411ZM45.9737 91.6411C45.9737 86.7141 49.9827 82.7051 54.9097 82.7051C59.8367 82.7051 63.8457 86.7141 63.8457 91.6411C63.8457 96.5681 59.8367 100.577 54.9097 100.577C49.9827 100.577 45.9737 96.5671 45.9737 91.6411Z" fill="#2677CC"/>
<path d="M142.435 215.658C142.435 207.973 136.183 201.722 128.498 201.722C120.813 201.722 114.562 207.973 114.562 215.658C114.562 223.343 120.813 229.594 128.498 229.594C136.183 229.594 142.435 223.343 142.435 215.658ZM119.562 215.658C119.562 210.731 123.571 206.722 128.498 206.722C133.425 206.722 137.435 210.731 137.435 215.658C137.435 220.585 133.425 224.594 128.498 224.594C123.571 224.594 119.562 220.585 119.562 215.658Z" fill="#2677CC"/>
<path d="M54.2593 158.962C52.9303 158.608 51.5563 159.402 51.2013 160.736L46.8303 177.192C46.6593 177.833 46.7513 178.515 47.0843 179.088C47.4173 179.661 47.9643 180.079 48.6053 180.249L65.0613 184.619C65.2763 184.677 65.4923 184.704 65.7053 184.704C66.8103 184.704 67.8223 183.964 68.1193 182.845C68.4733 181.511 67.6803 180.142 66.3453 179.787L55.7693 176.978L76.8313 164.817L127.249 193.926C127.636 194.15 128.067 194.261 128.499 194.261C128.931 194.261 129.362 194.15 129.749 193.926L180.167 164.817L201.229 176.978L190.653 179.787C189.318 180.141 188.524 181.511 188.879 182.845C189.176 183.964 190.188 184.704 191.293 184.704C191.506 184.704 191.722 184.677 191.937 184.619L208.393 180.249C209.034 180.079 209.581 179.661 209.914 179.088C210.247 178.515 210.339 177.832 210.168 177.192L205.797 160.736C205.443 159.402 204.07 158.606 202.739 158.962C201.404 159.316 200.61 160.686 200.965 162.02L203.799 172.689L182.756 160.54V102.119C182.756 101.225 182.279 100.4 181.506 99.954L131.153 70.883V50.483L138.924 58.254C139.412 58.742 140.052 58.986 140.692 58.986C141.332 58.986 141.971 58.742 142.46 58.254C143.437 57.277 143.437 55.695 142.46 54.719L130.419 42.68C129.442 41.703 127.86 41.703 126.884 42.68L114.844 54.719C113.867 55.695 113.867 57.278 114.844 58.254C115.821 59.23 117.403 59.231 118.379 58.254L126.151 50.482V70.705L75.4923 99.953C74.7193 100.399 74.2423 101.224 74.2423 102.118V160.539L53.1993 172.688L56.0333 162.019C56.3883 160.686 55.5943 159.316 54.2593 158.962ZM177.754 157.653L154.359 144.146C153.167 143.457 151.634 143.866 150.944 145.061C150.254 146.256 150.664 147.786 151.859 148.476L175.166 161.933L130.997 187.433V133.444L177.753 106.449L177.754 157.653ZM126.151 76.479V102.475C126.151 103.856 127.27 104.975 128.651 104.975C130.032 104.975 131.151 103.856 131.151 102.475V76.656L175.254 102.119L128.498 129.113L81.7423 102.118L126.151 76.479ZM79.2423 106.449L125.998 133.444V187.433L81.8293 161.933L105.136 148.476C106.331 147.786 106.741 146.256 106.051 145.061C105.36 143.866 103.829 143.457 102.636 144.146L79.2412 157.653V106.449H79.2423Z" fill="#2677CC"/>
<path d="M127.252 189.928C127.639 190.152 128.07 190.263 128.502 190.263C128.934 190.263 129.365 190.152 129.752 189.928L181.508 160.047C182.281 159.601 182.758 158.776 182.758 157.882V98.1179C182.758 97.2239 182.281 96.3989 181.508 95.9529L129.752 66.0719C128.979 65.6249 128.025 65.6249 127.252 66.0719L75.4961 95.9529C74.7231 96.3989 74.2461 97.2239 74.2461 98.1179V157.882C74.2461 158.776 74.7231 159.601 75.4961 160.047L127.252 189.928ZM79.2461 99.5619L128.502 71.1239L177.758 99.5619V156.439L128.502 184.876L79.2461 156.438V99.5619Z" fill="#2677CC"/>
<path d="M127.254 130.165C127.641 130.389 128.072 130.5 128.504 130.5C128.936 130.5 129.367 130.389 129.754 130.165L178.84 101.825C180.035 101.135 180.445 99.6049 179.755 98.4099C179.065 97.2139 177.533 96.8049 176.34 97.4949L128.504 125.113L81.0079 97.6909C79.8139 97.0019 78.2829 97.4099 77.5929 98.6059C76.9029 99.8009 77.3129 101.331 78.5079 102.021L127.254 130.165Z" fill="#2677CC"/>
<path d="M131.004 183.757V128C131.004 126.619 129.885 125.5 128.504 125.5C127.123 125.5 126.004 126.619 126.004 128V183.757C126.004 185.138 127.123 186.257 128.504 186.257C129.885 186.257 131.004 185.138 131.004 183.757Z" fill="#2677CC"/>
<path d="M127.252 189.928C127.639 190.152 128.07 190.263 128.502 190.263C128.934 190.263 129.365 190.152 129.752 189.928L181.508 160.047C182.281 159.601 182.758 158.776 182.758 157.882V98.1181C182.758 97.2241 182.281 96.3991 181.508 95.9531L129.752 66.0721C129.365 65.8481 128.934 65.7371 128.502 65.7371C128.07 65.7371 127.639 65.8491 127.252 66.0721L75.4961 95.9531C74.7231 96.3991 74.2461 97.2241 74.2461 98.1181V157.882C74.2461 158.776 74.7231 159.601 75.4961 160.047L127.252 189.928ZM75.7461 98.1181C75.7461 97.7621 75.9371 97.4301 76.2461 97.2521L128.003 67.3711C128.154 67.2831 128.327 67.2371 128.502 67.2371C128.677 67.2371 128.85 67.2831 129.002 67.3721L180.758 97.2531C181.066 97.4311 181.258 97.7631 181.258 98.1191V157.883C181.258 158.239 181.067 158.571 180.758 158.749L129.001 188.63C128.85 188.717 128.678 188.764 128.502 188.764C128.326 188.764 128.154 188.718 128.002 188.63L76.2461 158.749C75.9381 158.571 75.7461 158.239 75.7461 157.883V98.1181Z" fill="#2677CC"/>
<path d="M129.504 129.443V183.432C129.504 183.968 129.79 184.463 130.254 184.731C130.486 184.865 130.745 184.932 131.004 184.932C131.263 184.932 131.522 184.865 131.754 184.731L178.51 157.737C178.974 157.469 179.26 156.974 179.26 156.438V102.448C179.26 101.912 178.974 101.417 178.51 101.149C178.278 101.015 178.019 100.948 177.76 100.948C177.501 100.948 177.242 101.015 177.01 101.149L130.254 128.144C129.79 128.412 129.504 128.907 129.504 129.443ZM131.004 129.443L177.76 102.448V156.438L131.004 183.433V129.443Z" fill="#2677CC"/>
<path d="M78.4961 157.738L125.252 184.732C125.484 184.866 125.743 184.933 126.002 184.933C126.261 184.933 126.52 184.866 126.752 184.732C127.216 184.464 127.502 183.969 127.502 183.433V129.444C127.502 128.908 127.216 128.413 126.752 128.145L79.9961 101.15C79.7641 101.016 79.5051 100.949 79.2461 100.949C78.9871 100.949 78.7281 101.016 78.4961 101.15C78.0321 101.418 77.7461 101.913 77.7461 102.449V156.439C77.7461 156.974 78.0321 157.469 78.4961 157.738ZM79.2461 102.449L126.002 129.444V183.433L79.2461 156.439V102.449Z" fill="#2677CC"/>
<path d="M131.156 98.475V43.651C131.156 42.27 130.037 41.151 128.656 41.151C127.275 41.151 126.156 42.27 126.156 43.651V98.474C126.156 99.855 127.275 100.974 128.656 100.974C130.037 100.974 131.156 99.855 131.156 98.475Z" fill="#2677CC"/>
</svg>
