<svg width="1008" height="1008" viewBox="0 0 1008 1008" fill="none" xmlns="http://www.w3.org/2000/svg">
<g filter="url(#filter0_d_88_621)">
<rect x="6.5" y="2.5" width="995" height="995" rx="497.5" stroke="url(#paint0_linear_88_621)" stroke-width="5" shape-rendering="crispEdges"/>
<path d="M732.507 496.293C732.507 503.591 726.591 509.507 719.293 509.507C711.995 509.507 706.078 503.591 706.078 496.293C706.078 488.995 711.995 483.078 719.293 483.078C726.591 483.077 732.507 488.993 732.507 496.293Z" fill="#EBEBEB"/>
<path d="M690.002 506.247C695.5 500.75 695.5 491.837 690.002 486.339C684.505 480.842 675.592 480.842 670.094 486.339C664.597 491.837 664.597 500.75 670.094 506.247C675.592 511.744 684.505 511.744 690.002 506.247Z" fill="#EBEBEB"/>
<path d="M649.891 486.329C658.144 486.329 664.834 479.639 664.834 471.387C664.834 463.134 658.144 456.445 649.891 456.445C641.639 456.445 634.949 463.134 634.949 471.387C634.949 479.639 641.639 486.329 649.891 486.329Z" fill="#EBEBEB"/>
<path d="M659.158 435.848C660.681 427.364 655.038 419.251 646.554 417.728C638.069 416.205 629.957 421.848 628.434 430.333C626.91 438.817 632.554 446.93 641.038 448.453C649.522 449.976 657.635 444.333 659.158 435.848Z" fill="#EBEBEB"/>
<path d="M662.883 415.703C671.791 415.703 679.013 408.482 679.013 399.574C679.013 390.666 671.791 383.444 662.883 383.444C653.975 383.444 646.754 390.666 646.754 399.574C646.754 408.482 653.975 415.703 662.883 415.703Z" fill="#EBEBEB"/>
<path d="M706.413 402.577C715.371 398.833 719.598 388.537 715.854 379.579C712.111 370.621 701.814 366.394 692.856 370.138C683.898 373.881 679.671 384.178 683.415 393.135C687.158 402.093 697.455 406.32 706.413 402.577Z" fill="#EBEBEB"/>
<path d="M760.913 473.989C762.527 467.126 758.272 460.255 751.409 458.642C744.547 457.028 737.676 461.283 736.062 468.145C734.449 475.008 738.704 481.879 745.566 483.493C752.429 485.106 759.3 480.851 760.913 473.989Z" fill="#EBEBEB"/>
<path d="M759.529 443.763C765.639 441.423 768.696 434.573 766.356 428.463C764.016 422.353 757.166 419.296 751.056 421.636C744.946 423.975 741.889 430.825 744.229 436.936C746.568 443.046 753.418 446.103 759.529 443.763Z" fill="#EBEBEB"/>
<path d="M746.25 400.89C747.206 394.99 743.197 389.433 737.297 388.478C731.398 387.523 725.841 391.532 724.886 397.431C723.931 403.331 727.939 408.888 733.839 409.843C739.738 410.798 745.295 406.79 746.25 400.89Z" fill="#EBEBEB"/>
<path fill-rule="evenodd" clip-rule="evenodd" d="M353.166 335.546C356.424 339.028 359.158 342.892 361.335 347.014L374.389 346.963L379.24 368.011L367.481 373.682C367.33 378.34 366.566 383.012 365.159 387.572L374.423 396.764L362.969 415.076L350.651 410.774C347.169 414.036 343.302 416.767 339.18 418.941L339.229 431.998L318.185 436.849L312.512 425.09C307.854 424.938 303.184 424.172 298.622 422.763L289.431 432.027L271.115 420.575L275.419 408.255C272.157 404.773 269.427 400.909 267.251 396.786L254.195 396.835L249.344 375.788L261.105 370.118C261.258 365.46 262.024 360.79 263.429 356.23L254.168 347.037L265.62 328.724L277.939 333.028C281.421 329.766 285.287 327.033 289.409 324.859L289.36 311.802L310.405 306.951L316.076 318.711C320.734 318.862 325.404 319.628 329.966 321.035L339.157 311.773L357.469 323.223L353.166 335.546ZM327.409 352.776C316.561 345.992 302.264 349.286 295.478 360.137C288.694 370.987 291.991 385.284 302.838 392.067C313.689 398.851 327.983 395.556 334.769 384.707C341.555 373.856 338.261 359.562 327.409 352.776Z" fill="#E0E0E0"/>
<path fill-rule="evenodd" clip-rule="evenodd" d="M365.885 247.023C367.688 248.951 369.202 251.09 370.407 253.372L377.634 253.344L380.319 264.996L373.809 268.136C373.725 270.715 373.302 273.302 372.522 275.826L377.651 280.915L371.309 291.054L364.488 288.673C362.56 290.479 360.419 291.991 358.137 293.195L358.165 300.423L346.515 303.11L343.374 296.6C340.796 296.516 338.21 296.091 335.686 295.312L330.597 300.441L320.456 294.101L322.839 287.28C321.033 285.352 319.521 283.213 318.317 280.929L311.089 280.956L308.402 269.302L314.914 266.164C314.998 263.585 315.423 260.999 316.2 258.475L311.072 253.386L317.413 243.246L324.234 245.628C326.161 243.822 328.302 242.309 330.584 241.105L330.556 233.877L342.207 231.19L345.347 237.702C347.926 237.786 350.512 238.21 353.037 238.988L358.126 233.86L368.265 240.199L365.885 247.023ZM351.625 256.562C345.619 252.806 337.703 254.63 333.947 260.638C330.191 266.645 332.016 274.559 338.022 278.316C344.03 282.072 351.944 280.248 355.7 274.24C359.456 268.233 357.632 260.319 351.625 256.562Z" fill="#E0E0E0"/>
<path d="M264.499 268.562C264.511 268.542 264.711 268.654 265.082 268.888C265.457 269.113 265.978 269.507 266.571 270.095C267.749 271.241 269.241 273.368 269.56 276.402C269.707 277.897 269.572 279.598 268.916 281.261C268.26 282.907 267.176 284.562 265.576 285.791C264.796 286.426 263.89 286.942 262.912 287.327C261.937 287.726 260.878 287.978 259.786 288.051C257.6 288.246 255.287 287.683 253.306 286.468C251.345 285.219 249.826 283.385 249.045 281.334C248.632 280.319 248.395 279.255 248.327 278.205C248.244 277.156 248.313 276.115 248.541 275.136C248.945 273.158 249.958 271.46 251.152 270.148C252.361 268.832 253.83 267.964 255.24 267.442C258.107 266.401 260.673 266.81 262.219 267.367C263.007 267.643 263.589 267.94 263.955 268.178C264.323 268.412 264.512 268.543 264.499 268.562C264.462 268.63 263.697 268.097 262.136 267.614C260.603 267.143 258.121 266.828 255.401 267.88C254.064 268.408 252.679 269.255 251.551 270.52C250.436 271.782 249.496 273.397 249.132 275.265C248.923 276.189 248.867 277.17 248.951 278.157C249.021 279.146 249.249 280.145 249.643 281.097C250.386 283.022 251.813 284.736 253.654 285.91C255.516 287.05 257.68 287.583 259.735 287.408C260.763 287.345 261.761 287.113 262.681 286.743C263.605 286.388 264.462 285.908 265.201 285.315C266.721 284.172 267.761 282.618 268.407 281.064C269.049 279.496 269.206 277.88 269.096 276.446C268.851 273.54 267.481 271.446 266.385 270.274C265.268 269.08 264.453 268.625 264.499 268.562Z" fill="#E0E0E0"/>
<path d="M276.054 260.832C276.046 260.834 276.078 260.716 276.151 260.481C276.236 260.219 276.348 259.87 276.491 259.427C276.816 258.458 277.281 257.069 277.883 255.27L277.926 255.393C275.812 254.09 273.036 252.378 269.679 250.308L269.886 250.285C268.641 251.549 267.26 252.954 265.781 254.458L265.7 254.541L265.587 254.507C263.705 253.934 261.62 253.561 259.407 253.496L259.277 253.492L259.219 253.373C258.421 251.731 257.558 249.954 256.659 248.105L256.922 248.231C253.951 248.924 250.797 249.659 247.487 250.432L247.689 250.178C247.7 251.991 247.711 253.988 247.724 256.034L247.725 256.2L247.58 256.277C245.863 257.185 244.091 258.409 242.502 259.908L242.377 260.026L242.214 259.97C240.5 259.375 238.61 258.717 236.685 258.049L237.031 257.927C235.421 260.51 233.685 263.295 231.905 266.149L231.862 265.77C233.157 267.052 234.579 268.462 236.021 269.889L236.156 270.022L236.1 270.202C235.524 272.07 235.144 274.19 235.076 276.351L235.071 276.543L234.897 276.627C233.245 277.425 231.443 278.296 229.623 279.175L229.797 278.812C230.487 281.801 231.228 285.005 231.978 288.253L231.658 287.999C233.507 287.992 235.503 287.984 237.515 287.975L237.714 287.974L237.806 288.15C238.729 289.902 239.953 291.66 241.417 293.22L241.418 293.221L241.42 293.223C241.452 293.372 241.35 292.889 241.491 293.557L241.49 293.563L241.486 293.574L241.479 293.596L241.463 293.64L241.432 293.727L241.371 293.9L241.249 294.247L241.007 294.942L240.522 296.328C240.2 297.25 239.88 298.169 239.559 299.083L239.423 298.697C242.2 300.434 244.938 302.148 247.639 303.836L247.234 303.884C248.623 302.485 249.998 301.1 251.358 299.73L251.497 299.591L251.683 299.649C253.698 300.272 255.771 300.613 257.828 300.682L258.021 300.689L258.105 300.862C258.965 302.647 259.81 304.404 260.645 306.139L260.292 305.97C263.515 305.23 266.665 304.508 269.735 303.804L269.5 304.101C269.495 302.114 269.49 300.161 269.486 298.244V298.065L269.644 297.983C271.531 296.99 273.24 295.764 274.731 294.372L274.857 294.254L275.02 294.312C276.914 294.977 278.749 295.622 280.543 296.252L280.221 296.366C282.035 293.48 283.747 290.756 285.377 288.163L285.413 288.475C283.956 287.021 282.588 285.657 281.269 284.341L281.167 284.239L281.209 284.103C281.873 281.971 282.188 279.906 282.261 277.936L282.266 277.804L282.384 277.748C284.305 276.831 286.034 276.005 287.667 275.224L287.561 275.44C286.736 271.779 286.034 268.66 285.432 265.988L285.576 266.103C283.238 266.095 281.32 266.089 279.72 266.084H279.655L279.626 266.028C278.643 264.14 277.691 262.869 277.044 262.046C276.725 261.658 276.48 261.36 276.298 261.137C276.123 260.932 276.046 260.834 276.054 260.832C276.063 260.831 276.161 260.923 276.339 261.101C276.518 261.289 276.788 261.574 277.128 261.976C277.804 262.78 278.791 264.04 279.812 265.927L279.718 265.871C281.318 265.854 283.236 265.833 285.574 265.806L285.692 265.805L285.72 265.921C286.349 268.587 287.081 271.7 287.942 275.352L287.977 275.503L287.835 275.571C286.207 276.364 284.484 277.204 282.57 278.135L282.692 277.947C282.632 279.953 282.324 282.06 281.659 284.24L281.6 284.002C282.926 285.311 284.3 286.669 285.766 288.115L285.909 288.257L285.803 288.429C284.184 291.03 282.483 293.762 280.683 296.655L280.568 296.84L280.361 296.769C278.566 296.146 276.726 295.507 274.831 294.849L275.119 294.788C273.596 296.22 271.847 297.483 269.917 298.505L270.074 298.243C270.083 300.161 270.093 302.113 270.103 304.099L270.104 304.341L269.868 304.396C266.799 305.107 263.652 305.837 260.43 306.583L260.187 306.639L260.078 306.413C259.239 304.68 258.391 302.925 257.528 301.141L257.805 301.322C255.693 301.254 253.561 300.906 251.49 300.267L251.815 300.186C250.454 301.558 249.081 302.944 247.695 304.344L247.511 304.529L247.29 304.39C244.589 302.703 241.85 300.991 239.072 299.255L238.849 299.115L238.936 298.867C239.255 297.953 239.576 297.035 239.898 296.112L240.382 294.726L240.625 294.032L240.746 293.683L240.807 293.51L240.837 293.423L240.853 293.379L240.86 293.358L240.864 293.347L240.865 293.342C241.007 294.008 240.905 293.526 240.935 293.675L240.934 293.673L240.931 293.671C239.426 292.068 238.168 290.259 237.221 288.458L237.512 288.633C235.502 288.64 233.506 288.647 231.655 288.654L231.393 288.656L231.334 288.401C230.587 285.153 229.85 281.948 229.163 278.958L229.105 278.706L229.338 278.594C231.159 277.718 232.962 276.85 234.616 276.054L234.435 276.33C234.507 274.11 234.903 271.934 235.496 270.019L235.575 270.333C234.137 268.902 232.717 267.491 231.425 266.205L231.252 266.032L231.382 265.825C233.17 262.976 234.913 260.194 236.53 257.616L236.654 257.418L236.875 257.495C238.799 258.169 240.686 258.833 242.398 259.434L242.111 259.495C243.745 257.966 245.564 256.719 247.324 255.798L247.178 256.039C247.175 253.992 247.171 251.995 247.168 250.182V249.974L247.37 249.928C250.684 249.173 253.841 248.453 256.816 247.776L256.999 247.734L257.08 247.902C257.968 249.755 258.82 251.539 259.609 253.185L259.421 253.064C261.675 253.145 263.793 253.541 265.701 254.137L265.51 254.188C267.001 252.698 268.396 251.305 269.651 250.051L269.746 249.956L269.858 250.027C273.189 252.14 275.942 253.885 278.04 255.217L278.111 255.263L278.083 255.341C277.442 257.107 276.946 258.469 276.6 259.421C276.434 259.865 276.304 260.212 276.206 260.474C276.115 260.709 276.064 260.831 276.054 260.832Z" fill="#E0E0E0"/>
<path d="M611.188 208.345L570.027 208.156C564.508 208.131 560.011 212.789 559.989 218.558L559.955 226.024C559.933 231.795 555.436 236.453 549.917 236.428L469.683 236.057C464.165 236.031 459.708 231.333 459.732 225.562L459.764 218.096C459.788 212.325 455.332 207.625 449.813 207.602L435.337 207.534L399.311 207.368C381.419 207.287 366.849 221.726 366.774 239.62L364.578 759.13C364.503 777.015 378.934 791.574 396.816 791.656L608.695 792.634C626.586 792.716 641.155 778.275 641.232 760.383L643.429 240.871C643.502 222.988 629.071 208.429 611.188 208.345Z" fill="white"/>
<path d="M611.188 208.345C611.188 208.345 611.56 208.353 612.297 208.387C613.029 208.461 614.143 208.381 615.578 208.66C618.447 209.013 622.808 209.965 627.704 212.912C630.176 214.32 632.688 216.345 635.062 218.929C637.427 221.518 639.619 224.75 641.183 228.618C642.768 232.474 643.615 236.971 643.549 241.767C643.533 246.55 643.518 251.641 643.501 257.036C643.346 300.192 643.122 362.629 642.845 439.779C642.541 516.934 642.178 608.801 641.776 710.809C641.725 723.56 641.673 736.47 641.62 749.529C641.607 752.794 641.593 756.068 641.579 759.351C641.529 762.637 641.303 766.011 640.301 769.203C639.357 772.395 638.022 775.507 636.139 778.291C634.263 781.072 631.985 783.585 629.379 785.73C624.11 789.925 617.519 792.586 610.696 792.895C608.987 793.009 607.303 792.985 605.613 792.974L600.537 792.951C597.147 792.936 593.751 792.921 590.346 792.905C576.724 792.844 562.972 792.782 549.096 792.719C521.346 792.593 493.103 792.464 464.441 792.334C450.111 792.268 435.675 792.202 421.143 792.135C413.877 792.102 406.588 792.068 399.275 792.034C391.941 792.379 384.364 790.416 378.257 786.14C372.125 781.896 367.613 775.496 365.524 768.405C364.4 764.869 364.205 761.107 364.219 757.468C364.235 753.823 364.25 750.183 364.266 746.548C364.327 732.012 364.389 717.573 364.45 703.238C364.574 674.569 364.694 646.318 364.814 618.56C365.057 563.045 365.29 509.495 365.513 458.483C365.74 407.471 365.957 358.998 366.158 313.632C366.262 290.949 366.361 269.043 366.457 247.987C366.469 245.355 366.48 242.736 366.493 240.131C366.517 238.826 366.615 237.511 366.69 236.209C366.923 234.924 367.028 233.616 367.367 232.359C368.569 227.304 370.93 222.576 374.22 218.691C377.533 214.827 381.682 211.769 386.243 209.779C390.801 207.743 395.798 207.039 400.625 207.117C410.27 207.166 419.683 207.214 428.859 207.26C433.447 207.284 437.974 207.306 442.442 207.33C444.675 207.341 446.894 207.352 449.096 207.364C451.316 207.263 453.614 207.879 455.431 209.16C457.247 210.441 458.64 212.28 459.351 214.35C460.168 216.422 459.963 218.655 459.979 220.729C459.974 221.784 459.97 222.835 459.964 223.882C459.963 224.932 459.921 225.975 460.054 226.978C460.304 228.994 461.148 230.928 462.463 232.438C463.751 233.971 465.522 235.068 467.429 235.548C468.389 235.792 469.354 235.865 470.36 235.849C471.36 235.855 472.354 235.859 473.345 235.865C477.307 235.886 481.205 235.905 485.035 235.926C500.358 236.008 514.617 236.085 527.744 236.155C534.307 236.191 540.586 236.225 546.574 236.257C548.062 236.237 549.568 236.337 550.989 236.218C552.419 236.061 553.786 235.572 554.975 234.833C557.368 233.356 558.997 230.898 559.556 228.301C559.858 227.001 559.812 225.676 559.825 224.361C559.832 223.051 559.839 221.758 559.846 220.487C559.867 219.223 559.794 217.952 560.029 216.716C560.246 215.486 560.667 214.315 561.26 213.26C562.431 211.139 564.328 209.541 566.433 208.723C568.555 207.809 570.812 208.097 572.856 208.062C581.158 208.114 588.184 208.159 593.866 208.194C599.54 208.236 603.869 208.268 606.785 208.289C609.697 208.313 611.188 208.345 611.188 208.345C611.188 208.345 609.697 208.363 606.786 208.362C603.87 208.356 599.541 208.349 593.866 208.338C588.184 208.321 581.158 208.3 572.856 208.276C570.792 208.316 568.577 208.041 566.518 208.937C564.467 209.741 562.618 211.305 561.478 213.379C560.903 214.41 560.492 215.555 560.284 216.756C560.057 217.953 560.13 219.21 560.112 220.484C560.107 221.757 560.103 223.048 560.099 224.358C560.088 225.659 560.14 227.018 559.832 228.357C559.263 231.024 557.596 233.556 555.132 235.082C553.908 235.847 552.496 236.353 551.021 236.519C549.53 236.643 548.074 236.544 546.571 236.568C540.584 236.545 534.304 236.521 527.741 236.496C514.614 236.444 500.354 236.388 485.031 236.33C481.201 236.314 477.303 236.299 473.341 236.282C472.35 236.278 471.356 236.274 470.358 236.269C469.368 236.288 468.315 236.215 467.324 235.96C465.329 235.46 463.478 234.314 462.133 232.718C460.761 231.144 459.877 229.129 459.614 227.029C459.474 225.97 459.519 224.917 459.517 223.877C459.522 222.829 459.526 221.779 459.529 220.724C459.51 218.614 459.705 216.472 458.918 214.498C458.235 212.516 456.898 210.757 455.163 209.536C453.412 208.316 451.276 207.733 449.092 207.83C446.888 207.82 444.67 207.812 442.437 207.802C437.97 207.784 433.442 207.764 428.855 207.746C419.679 207.708 410.265 207.669 400.621 207.628C395.827 207.557 390.941 208.251 386.45 210.259C381.966 212.222 377.886 215.233 374.63 219.035C371.397 222.86 369.082 227.51 367.903 232.48C367.57 233.714 367.47 235.001 367.241 236.264C367.169 237.548 367.071 238.827 367.049 240.128C367.039 242.733 367.029 245.353 367.018 247.985C366.935 269.042 366.85 290.948 366.762 313.629C366.58 358.995 366.387 407.468 366.184 458.48C365.975 509.492 365.755 563.042 365.528 618.558C365.412 646.315 365.295 674.565 365.176 703.235C365.115 717.57 365.055 732.011 364.994 746.547C364.978 750.181 364.963 753.821 364.947 757.467C364.935 761.099 365.122 764.725 366.223 768.198C368.265 775.128 372.677 781.389 378.673 785.538C384.669 789.717 391.994 791.635 399.277 791.301C406.589 791.334 413.879 791.368 421.145 791.402C435.677 791.469 450.112 791.536 464.443 791.603C493.105 791.738 521.346 791.869 549.098 791.999C562.973 792.065 576.727 792.13 590.347 792.194C593.752 792.211 597.15 792.226 600.538 792.243L605.614 792.267C607.306 792.279 608.997 792.302 610.656 792.191C617.334 791.892 623.781 789.288 628.941 785.184C631.492 783.086 633.722 780.626 635.559 777.904C637.404 775.181 638.71 772.135 639.636 769.011C640.62 765.878 640.838 762.606 640.89 759.346C640.904 756.063 640.92 752.788 640.934 749.523C640.991 736.464 641.048 723.555 641.104 710.804C641.565 608.797 641.979 516.929 642.328 439.775C642.703 362.625 643.007 300.188 643.217 257.033C643.245 251.639 643.273 246.547 643.298 241.764C643.374 236.99 642.545 232.534 640.981 228.698C639.44 224.852 637.27 221.632 634.926 219.051C632.574 216.473 630.084 214.449 627.627 213.038C622.766 210.084 618.426 209.109 615.567 208.734C614.138 208.444 613.026 208.513 612.295 208.426C611.56 208.379 611.188 208.345 611.188 208.345Z" fill="#263238"/>
<path d="M573.148 371.92L569.966 368.142L579.437 363.069L535.464 348.185L550.348 390.804L555.76 383.7C555.76 383.7 584.212 433.767 555.76 464.203C527.504 494.429 494.199 487.88 494.199 487.88L500.625 508.852C500.625 508.852 553.054 512.573 581.128 465.218C609.202 417.865 573.148 371.92 573.148 371.92Z" fill="#E8505B"/>
<path d="M441.292 476.966L444.475 480.743L435.004 485.817L478.976 500.7L464.093 458.081L458.68 465.185C458.68 465.185 430.228 415.118 458.68 384.682C486.937 354.456 520.241 361.004 520.241 361.004L513.814 340.032C513.814 340.032 461.385 336.311 433.311 383.666C405.238 431.021 441.292 476.966 441.292 476.966Z" fill="#E8505B"/>
<path d="M573.148 371.92L569.966 368.142L579.437 363.069L535.464 348.185L550.348 390.804L555.76 383.7C555.76 383.7 584.212 433.767 555.76 464.203C527.504 494.429 494.199 487.88 494.199 487.88L500.625 508.852C500.625 508.852 553.054 512.573 581.128 465.218C609.202 417.865 573.148 371.92 573.148 371.92Z" fill="#E8505B"/>
<path d="M441.292 476.966L444.475 480.743L435.004 485.817L478.976 500.7L464.093 458.081L458.68 465.185C458.68 465.185 430.228 415.118 458.68 384.682C486.937 354.456 520.241 361.004 520.241 361.004L513.814 340.032C513.814 340.032 461.385 336.311 433.311 383.666C405.238 431.021 441.292 476.966 441.292 476.966Z" fill="#E8505B"/>
<g opacity="0.8">
<path d="M573.148 371.92L569.966 368.142L579.437 363.069L535.464 348.185L550.348 390.804L555.76 383.7C555.76 383.7 584.212 433.767 555.76 464.203C527.504 494.429 494.199 487.88 494.199 487.88L500.625 508.852C500.625 508.852 553.054 512.573 581.128 465.218C609.202 417.865 573.148 371.92 573.148 371.92Z" fill="white"/>
</g>
<g opacity="0.8">
<path d="M441.292 476.966L444.475 480.743L435.004 485.817L478.976 500.7L464.093 458.081L458.68 465.185C458.68 465.185 430.228 415.118 458.68 384.682C486.937 354.456 520.241 361.004 520.241 361.004L513.814 340.032C513.814 340.032 461.385 336.311 433.311 383.666C405.238 431.021 441.292 476.966 441.292 476.966Z" fill="white"/>
</g>
<path fill-rule="evenodd" clip-rule="evenodd" d="M532.293 399.582C534.401 401.836 536.171 404.338 537.58 407.005L546.029 406.973L549.17 420.596L541.559 424.267C541.461 427.283 540.966 430.307 540.056 433.258L546.052 439.208L538.637 451.06L530.663 448.276C528.409 450.387 525.907 452.155 523.239 453.563L523.271 462.014L509.649 465.154L505.977 457.544C502.961 457.446 499.939 456.949 496.987 456.037L491.039 462.033L479.184 454.62L481.97 446.646C479.858 444.392 478.092 441.89 476.682 439.222L468.23 439.254L465.09 425.631L472.703 421.96C472.801 418.944 473.298 415.922 474.207 412.97L468.212 407.02L475.625 395.167L483.598 397.953C485.852 395.841 488.355 394.073 491.022 392.665L490.99 384.214L504.612 381.074L508.283 388.686C511.298 388.784 514.321 389.28 517.273 390.191L523.222 384.195L535.076 391.606L532.293 399.582ZM515.62 410.736C508.598 406.344 499.344 408.476 494.952 415.5C490.56 422.523 492.694 431.777 499.716 436.168C506.74 440.56 515.992 438.427 520.384 431.404C524.776 424.38 522.644 415.128 515.62 410.736Z" fill="#E8505B"/>
<g opacity="0.6">
<path fill-rule="evenodd" clip-rule="evenodd" d="M515.62 410.736C508.597 406.344 499.343 408.476 494.952 415.5C490.56 422.523 492.693 431.777 499.716 436.168C506.74 440.56 515.992 438.427 520.384 431.404C524.776 424.38 522.644 415.128 515.62 410.736Z" fill="white"/>
</g>
<path d="M461.566 562.709V553.733H463.223V562.641C463.223 566.357 464.968 568.058 468.012 568.058C471.078 568.058 472.824 566.357 472.824 562.641V553.733H474.435V562.709C474.435 567.207 472.017 569.535 468.011 569.535C464.007 569.536 461.566 567.208 461.566 562.709Z" fill="#263238"/>
<path d="M491.683 559.107C491.683 562.441 489.267 564.456 485.283 564.456H481.074V569.402H479.418V553.733H485.283C489.267 553.733 491.683 555.748 491.683 559.107ZM490.029 559.107C490.029 556.599 488.371 555.167 485.238 555.167H481.074V563.001H485.238C488.371 563.001 490.029 561.569 490.029 559.107Z" fill="#263238"/>
<path d="M495.258 553.733H501.638C506.651 553.733 510.032 556.958 510.032 561.568C510.032 566.178 506.652 569.401 501.638 569.401H495.258V553.733ZM501.548 567.97C505.712 567.97 508.397 565.328 508.397 561.569C508.397 557.809 505.712 555.167 501.548 555.167H496.915V567.97H501.548Z" fill="#263238"/>
<path d="M523.339 565.216H514.61L512.73 569.401H511.008L518.17 553.732H519.804L526.966 569.401H525.221L523.339 565.216ZM522.736 563.874L518.975 555.458L515.215 563.874H522.736Z" fill="#263238"/>
<path d="M531.816 555.166H526.309V553.733H538.977V555.166H533.47V569.402H531.815V555.166H531.816Z" fill="#263238"/>
<path d="M552.693 567.97V569.402H541.613V553.733H552.357V555.166H543.271V560.739H551.373V562.15H543.271V567.97H552.693Z" fill="#263238"/>
<path d="M623.47 258.749C623.471 258.896 617.797 259.064 610.798 259.122C603.797 259.179 598.121 259.108 598.121 258.959C598.12 258.812 603.792 258.644 610.794 258.587C617.791 258.529 623.468 258.602 623.47 258.749Z" fill="#263238"/>
<path d="M623.524 265.235C623.526 265.382 617.851 265.549 610.853 265.608C603.851 265.666 598.176 265.592 598.176 265.445C598.174 265.298 603.847 265.132 610.849 265.073C617.847 265.015 623.523 265.088 623.524 265.235Z" fill="#263238"/>
<path d="M623.575 271.722C623.576 271.869 617.902 272.035 610.904 272.094C603.902 272.151 598.227 272.079 598.227 271.932C598.225 271.785 603.898 271.618 610.899 271.559C617.898 271.5 623.574 271.575 623.575 271.722Z" fill="#263238"/>
<path d="M392.907 279.125C392.917 279.115 393.097 279.104 393.433 279.09C393.849 279.076 394.331 279.06 394.899 279.041C396.282 279.009 398.091 278.965 400.312 278.912L400.162 279.065C400.142 277.865 400.121 276.554 400.099 275.14C400.106 274.411 400.036 273.724 400.107 272.881C400.253 272.041 401.002 271.299 401.923 271.212C402.795 271.195 403.564 271.156 404.509 271.199C405.485 271.318 406.313 272.256 406.284 273.29C406.305 275.119 406.326 277.032 406.348 279.014L406.098 278.768C408.29 278.745 410.574 278.723 412.926 278.698L412.667 278.962C412.643 276.213 412.618 273.368 412.591 270.455C412.585 269.728 412.578 269.006 412.573 268.287C412.57 267.62 412.164 267.173 411.612 266.675C410.602 265.679 409.606 264.698 408.628 263.732C407.65 262.767 406.69 261.819 405.748 260.89C405.277 260.425 404.813 259.966 404.352 259.511C403.872 259.049 403.495 258.571 402.939 258.457C402.4 258.311 401.807 258.426 401.373 258.756C400.96 259.106 400.519 259.6 400.102 260.006C399.26 260.855 398.444 261.679 397.652 262.477C396.11 264.078 394.506 265.541 393.338 266.922C392.847 267.685 393.03 268.621 392.995 269.47C392.994 270.316 392.992 271.12 392.99 271.876C392.981 273.351 392.973 274.643 392.966 275.751C392.955 276.741 392.946 277.56 392.938 278.229C392.931 278.803 392.92 279.111 392.907 279.125C392.894 279.137 392.879 278.856 392.859 278.304C392.841 277.645 392.819 276.84 392.791 275.864C392.766 274.747 392.736 273.445 392.703 271.957C392.689 271.185 392.673 270.366 392.658 269.504C392.651 269.067 392.644 268.619 392.637 268.161C392.633 267.677 392.757 267.176 393.013 266.732C394.276 265.184 395.784 263.814 397.337 262.167C398.122 261.362 398.934 260.53 399.767 259.676C400.205 259.246 400.564 258.818 401.084 258.37C401.63 257.95 402.381 257.8 403.064 257.981C403.791 258.14 404.264 258.737 404.703 259.154C405.165 259.606 405.633 260.064 406.105 260.526C407.05 261.451 408.013 262.396 408.993 263.358C409.974 264.321 410.971 265.3 411.983 266.294C412.224 266.547 412.513 266.763 412.746 267.12C412.968 267.46 413.094 267.863 413.105 268.271C413.112 268.992 413.117 269.718 413.124 270.448C413.147 273.361 413.168 276.206 413.189 278.955L413.192 279.217L412.93 279.219C410.578 279.234 408.294 279.248 406.102 279.262L405.851 279.263L405.85 279.014C405.84 277.032 405.83 275.119 405.821 273.29C405.85 272.465 405.207 271.737 404.442 271.632C403.656 271.59 402.729 271.618 401.965 271.625C401.231 271.685 400.618 272.275 400.492 272.952C400.426 273.638 400.477 274.439 400.463 275.133C400.463 276.547 400.464 277.858 400.464 279.059V279.213L400.314 279.212C398.056 279.196 396.218 279.182 394.811 279.172C394.254 279.163 393.783 279.154 393.377 279.147C393.058 279.143 392.897 279.135 392.907 279.125Z" fill="#263238"/>
<path d="M560.697 273.591C560.697 273.792 539.364 273.955 513.054 273.955C486.735 273.955 465.406 273.791 465.406 273.591C465.406 273.39 486.735 273.227 513.054 273.227C539.364 273.225 560.697 273.389 560.697 273.591Z" fill="#263238"/>
<path d="M558.227 716.062H458.188C445.412 716.062 435.055 705.705 435.055 692.928C435.055 680.152 445.412 669.793 458.188 669.793H558.227C571.003 669.793 581.36 680.151 581.36 692.928C581.362 705.705 571.004 716.062 558.227 716.062Z" fill="#E8505B"/>
<path d="M489.121 696.312L489.957 694.46C490.854 695.114 492.19 695.569 493.465 695.569C494.924 695.569 495.516 695.083 495.516 694.429C495.516 692.44 489.335 693.806 489.335 689.857C489.335 688.049 490.793 686.546 493.815 686.546C495.151 686.546 496.519 686.865 497.506 687.488L496.747 689.356C495.76 688.794 494.742 688.52 493.801 688.52C492.342 688.52 491.781 689.067 491.781 689.735C491.781 691.694 497.964 690.343 497.964 694.247C497.964 696.022 496.489 697.542 493.451 697.542C491.763 697.543 490.063 697.043 489.121 696.312Z" fill="white"/>
<path d="M504.747 696.966C504.259 697.316 503.547 697.483 502.817 697.483C500.888 697.483 499.764 696.496 499.764 694.551V691.194H498.504V689.37H499.764V687.38H502.133V689.37H504.168V691.194H502.133V694.52C502.133 695.219 502.512 695.598 503.151 695.598C503.501 695.598 503.849 695.493 504.108 695.295L504.747 696.966Z" fill="white"/>
<path d="M513.305 692.697V697.361H511.087V696.343C510.647 697.086 509.796 697.483 508.596 697.483C506.683 697.483 505.543 696.419 505.543 695.007C505.543 693.565 506.561 692.562 509.051 692.562H510.936C510.936 691.544 510.327 690.953 509.051 690.953C508.186 690.953 507.29 691.241 506.697 691.712L505.847 690.056C506.744 689.419 508.064 689.069 509.372 689.069C511.863 689.067 513.305 690.222 513.305 692.697ZM510.936 694.778V693.942H509.31C508.202 693.942 507.853 694.352 507.853 694.9C507.853 695.493 508.353 695.887 509.189 695.887C509.978 695.887 510.661 695.523 510.936 694.778Z" fill="white"/>
<path d="M520.518 689.067V691.256C520.32 691.24 520.169 691.226 519.987 691.226C518.679 691.226 517.814 691.94 517.814 693.504V697.362H515.445V689.191H517.708V690.27C518.285 689.478 519.256 689.067 520.518 689.067Z" fill="white"/>
<path d="M527.485 696.966C526.998 697.316 526.285 697.483 525.556 697.483C523.626 697.483 522.502 696.496 522.502 694.551V691.194H521.242V689.37H522.502V687.38H524.871V689.37H526.907V691.194H524.871V694.52C524.871 695.219 525.252 695.598 525.889 695.598C526.239 695.598 526.587 695.493 526.846 695.295L527.485 696.966Z" fill="white"/>
<path d="M603.279 606.296C603.279 606.498 560.269 606.66 507.224 606.66C454.161 606.66 411.16 606.497 411.16 606.296C411.16 606.095 454.161 605.932 507.224 605.932C560.269 605.932 603.279 606.096 603.279 606.296Z" fill="#263238"/>
<path d="M565.006 618.073C565.006 618.275 539.133 618.437 507.223 618.437C475.301 618.437 449.434 618.273 449.434 618.073C449.434 617.872 475.301 617.709 507.223 617.709C539.132 617.709 565.006 617.872 565.006 618.073Z" fill="#263238"/>
<path d="M299.173 791.54L290.668 822.988L318.311 825.511L324.12 795.572L299.173 791.54Z" fill="#404040"/>
<path d="M319.111 822.949C319.103 823.053 317.555 823.015 315.063 822.812C312.571 822.612 309.141 822.231 305.363 821.746C301.725 821.258 298.432 820.815 295.702 820.45C293.232 820.104 291.705 819.869 291.715 819.76C291.725 819.658 293.272 819.701 295.762 819.908C298.253 820.114 301.683 820.498 305.461 820.983C309.1 821.468 312.391 821.907 315.123 822.271C317.594 822.612 319.123 822.84 319.111 822.949Z" fill="#263238"/>
<g opacity="0.6">
<path d="M290.668 822.988L318.311 825.511L318.758 823.205L291.466 819.736L290.696 822.676" fill="white"/>
</g>
<path d="M304.4 821.59C304.226 821.546 305.402 816.152 307.028 809.541C308.654 802.928 310.113 797.603 310.287 797.647C310.46 797.69 309.284 803.084 307.658 809.697C306.034 816.306 304.575 821.632 304.4 821.59Z" fill="#263238"/>
<path d="M317.587 822.745C317.417 822.738 318.469 820.488 317.65 816.898C317.228 815.148 316.31 813.112 314.624 811.425C312.965 809.729 310.476 808.544 307.745 808.264C305.008 808.001 302.341 808.66 300.341 809.947C298.317 811.215 296.924 812.949 296.036 814.521C294.278 817.745 294.449 820.17 294.291 820.129C294.268 820.129 294.254 819.985 294.25 819.712C294.236 819.438 294.26 819.034 294.314 818.515C294.431 817.48 294.779 815.982 295.63 814.304C296.496 812.649 297.905 810.807 300.019 809.443C302.111 808.059 304.928 807.34 307.808 807.619C310.683 807.912 313.312 809.183 315.048 811.006C316.805 812.814 317.715 814.968 318.096 816.8C318.46 818.652 318.333 820.198 318.106 821.214C317.987 821.724 317.875 822.113 317.766 822.367C317.669 822.623 317.608 822.752 317.587 822.745Z" fill="#263238"/>
<path d="M413.309 783.101L411.459 811.041C411.459 811.041 439.268 820.27 439.428 825.466L385.094 825.86L386.191 782.206L413.309 783.101Z" fill="#404040"/>
<g opacity="0.6">
<path d="M394.739 808.18C393.679 808.437 392.918 809.596 393.129 810.665C393.341 811.735 394.514 812.519 395.578 812.282C396.642 812.046 397.599 810.681 397.269 809.643C396.939 808.605 395.512 807.758 394.536 808.243" fill="white"/>
</g>
<g opacity="0.6">
<path d="M385.094 825.86L385.204 821.459L437.682 822.908C437.682 822.908 439.428 823.662 439.704 825.86H385.094Z" fill="white"/>
</g>
<path d="M412.348 810.791C412.331 811.056 411.001 811.136 409.671 811.949C408.319 812.728 407.612 813.856 407.371 813.744C407.127 813.685 407.571 812.112 409.199 811.155C410.819 810.185 412.412 810.551 412.348 810.791Z" fill="#263238"/>
<path d="M417.97 813.32C418.023 813.579 416.861 813.995 415.926 815.089C414.96 816.156 414.695 817.362 414.432 817.342C414.181 817.376 414.044 815.817 415.233 814.479C416.409 813.131 417.972 813.066 417.97 813.32Z" fill="#263238"/>
<path d="M421 820.235C420.758 820.284 420.429 818.948 421.152 817.516C421.866 816.079 423.135 815.545 423.24 815.769C423.383 815.991 422.554 816.746 421.977 817.93C421.374 819.101 421.263 820.216 421 820.235Z" fill="#263238"/>
<path d="M412.065 804.377C411.946 804.615 410.74 804.213 409.238 804.269C407.736 804.295 406.554 804.763 406.423 804.531C406.274 804.335 407.443 803.387 409.213 803.346C410.983 803.292 412.201 804.172 412.065 804.377Z" fill="#263238"/>
<path d="M412.334 798.733C412.334 798.844 411.281 798.976 409.615 798.637C408.786 798.467 407.812 798.165 406.797 797.676C406.289 797.431 405.772 797.142 405.26 796.8C405.015 796.632 404.722 796.46 404.458 796.136C404.172 795.851 404.026 795.142 404.379 794.722C404.67 794.314 405.167 794.148 405.559 794.151C405.96 794.15 406.282 794.241 406.576 794.323C407.176 794.489 407.736 794.706 408.249 794.955C409.272 795.457 410.097 796.08 410.707 796.677C411.932 797.882 412.331 798.885 412.24 798.934C412.117 799.018 411.529 798.169 410.276 797.167C409.652 796.668 408.849 796.148 407.892 795.726C407.412 795.518 406.894 795.336 406.345 795.197C405.774 795.029 405.285 795.009 405.13 795.261C405.074 795.358 405.065 795.396 405.18 795.568C405.299 795.728 405.529 795.886 405.769 796.054C406.24 796.381 406.716 796.668 407.182 796.919C408.116 797.417 409.012 797.766 409.78 798.007C411.322 798.486 412.342 798.591 412.334 798.733Z" fill="#263238"/>
<path d="M411.975 799.103C411.88 799.141 411.383 798.175 411.338 796.454C411.318 795.602 411.437 794.571 411.799 793.488C411.982 792.947 412.226 792.396 412.542 791.857C412.877 791.33 413.287 790.623 414.319 790.536C414.856 790.532 415.29 790.965 415.432 791.329C415.6 791.701 415.626 792.018 415.681 792.334C415.762 792.971 415.731 793.593 415.628 794.165C415.422 795.316 414.919 796.264 414.382 796.94C413.277 798.315 412.161 798.599 412.142 798.508C412.058 798.372 412.997 797.888 413.85 796.561C414.27 795.907 414.653 795.037 414.788 794.031C414.856 793.53 414.865 792.996 414.785 792.457C414.718 791.878 414.515 791.406 414.298 791.458C414.027 791.445 413.556 791.866 413.319 792.32C413.025 792.799 412.788 793.29 412.601 793.773C412.231 794.745 412.053 795.68 411.992 796.471C411.867 798.066 412.121 799.067 411.975 799.103Z" fill="#263238"/>
<path d="M413.312 540.365L330.525 539.742L290.52 802.492L324.878 806.853L368.913 590.81L382.091 807.622L382.126 808.267L419.283 807.618L413.312 540.365Z" fill="#444968"/>
<path d="M375.657 561.657C375.631 561.632 376.227 561.596 377.368 561.547C378.608 561.5 380.276 561.44 382.348 561.363C386.784 561.237 392.939 561.064 400.24 560.856L400.58 560.847L400.581 561.191C400.594 566.382 400.608 572.189 400.623 578.352V578.517L400.502 578.631C399.508 579.544 398.452 580.515 397.385 581.497C394.197 584.418 391.115 587.244 388.2 589.915L387.956 590.137L387.711 589.919C383.158 585.862 379.005 582.159 375.464 579.003L375.363 578.914L375.365 578.783C375.429 573.564 375.481 569.277 375.52 566.192C375.551 564.789 375.576 563.661 375.594 562.8C375.615 562.03 375.636 561.636 375.657 561.657C375.678 561.678 375.699 562.112 375.722 562.913C375.74 563.791 375.765 564.94 375.796 566.371C375.834 569.413 375.887 573.638 375.951 578.783L375.852 578.564C379.419 581.688 383.605 585.355 388.193 589.373L387.704 589.377C390.613 586.699 393.691 583.865 396.871 580.938C397.94 579.958 398.997 578.988 399.991 578.075L399.869 578.352C399.884 572.189 399.898 566.384 399.911 561.191L400.252 561.526C393.035 561.593 386.952 561.652 382.568 561.692C380.463 561.695 378.769 561.698 377.509 561.699C376.969 561.694 376.522 561.689 376.15 561.685C375.838 561.68 375.67 561.67 375.657 561.657Z" fill="#444968"/>
<path d="M336.693 560.519C336.671 560.491 337.202 560.521 338.221 560.598C339.339 560.689 340.829 560.81 342.676 560.962C346.664 561.323 352.189 561.824 358.776 562.42L359.109 562.451L359.068 562.789C358.462 567.866 357.77 573.654 357.033 579.828L357.014 579.981L356.894 580.077C355.754 580.987 354.548 581.95 353.325 582.926C350.279 585.351 347.326 587.7 344.521 589.933L344.232 590.163L344.006 589.876C340.45 585.379 337.186 581.255 334.381 577.707L334.301 577.606L334.318 577.483C335.013 572.331 335.586 568.083 336 565.016C336.202 563.627 336.364 562.507 336.489 561.65C336.605 560.886 336.675 560.495 336.693 560.519C336.713 560.543 336.681 560.98 336.605 561.781C336.517 562.66 336.402 563.808 336.259 565.232C335.928 568.264 335.468 572.463 334.911 577.554L334.848 577.332C337.685 580.856 340.983 584.952 344.578 589.418L344.064 589.361C346.866 587.121 349.813 584.764 352.854 582.334C354.077 581.36 355.285 580.396 356.425 579.488L356.286 579.737C357.058 573.567 357.783 567.784 358.417 562.709L358.711 563.076C352.222 562.352 346.78 561.744 342.851 561.306C340.98 561.081 339.474 560.9 338.341 560.764C337.29 560.63 336.716 560.547 336.693 560.519Z" fill="#444968"/>
<path d="M387.344 600.401C387.289 600.495 385.87 599.768 383.591 598.577C381.311 597.385 378.164 595.742 374.657 593.99C371.147 592.24 367.941 590.716 365.617 589.611C363.295 588.507 361.861 587.809 361.903 587.71C361.942 587.618 363.45 588.14 365.834 589.121C368.219 590.103 371.472 591.556 374.995 593.311C378.514 595.068 381.633 596.793 383.851 598.108C386.07 599.422 387.396 600.313 387.344 600.401Z" fill="#444968"/>
<path d="M386.281 606.781C386.25 606.863 385.13 606.557 383.457 605.718C381.787 604.885 379.596 603.454 377.552 601.447C375.512 599.432 374.048 597.264 373.191 595.606C372.327 593.946 372.004 592.831 372.087 592.799C372.305 592.68 374.065 596.996 378.086 600.906C382.053 604.866 386.396 606.56 386.281 606.781Z" fill="#444968"/>
<path d="M409.65 682.703C409.693 682.717 409.584 683.212 409.275 684.075C408.968 684.937 408.418 686.154 407.549 687.551C405.845 690.333 402.574 693.813 397.887 695.797C393.194 697.772 388.419 697.685 385.237 696.966C383.63 696.614 382.374 696.159 381.542 695.777C380.708 695.396 380.278 695.129 380.298 695.088C380.354 694.951 382.168 695.885 385.338 696.439C388.471 697.009 393.075 696.999 397.592 695.098C402.104 693.189 405.323 689.897 407.101 687.255C408.915 684.598 409.513 682.647 409.65 682.703Z" fill="#444968"/>
<path d="M404.207 680.464C404.245 680.542 403.086 681.203 401.043 681.86C399.009 682.526 396.074 683.103 392.808 683.219C389.542 683.358 386.592 683.051 384.488 682.731C382.382 682.395 381.108 682.046 381.125 681.954C381.162 681.695 386.349 682.701 392.777 682.462C395.985 682.347 398.86 681.868 400.895 681.345C402.936 680.831 404.159 680.351 404.207 680.464Z" fill="#444968"/>
<path d="M342.656 682.026C342.714 682.088 341.7 683.184 339.776 684.635C337.86 686.086 334.98 687.821 331.526 689.112C328.068 690.394 324.754 690.965 322.356 691.121C319.952 691.282 318.468 691.115 318.473 691.031C318.474 690.907 319.952 690.881 322.304 690.587C324.655 690.299 327.878 689.656 331.263 688.401C334.644 687.135 337.501 685.514 339.468 684.195C341.44 682.882 342.575 681.933 342.656 682.026Z" fill="#444968"/>
<path d="M335.397 681.707C335.444 681.891 332.049 682.682 327.805 682.33C323.559 682.005 320.333 680.687 320.408 680.512C320.475 680.292 323.73 681.259 327.865 681.574C331.998 681.92 335.365 681.48 335.397 681.707Z" fill="#444968"/>
<path d="M368.42 592.623C368.456 592.707 367.067 593.429 364.697 594.308C362.33 595.19 358.961 596.173 355.146 596.788C351.328 597.395 347.82 597.513 345.297 597.415C342.77 597.32 341.226 597.066 341.234 596.975C341.244 596.858 342.798 596.921 345.301 596.879C347.805 596.839 351.258 596.639 355.027 596.04C358.792 595.434 362.136 594.545 364.526 593.801C366.916 593.058 368.373 592.513 368.42 592.623Z" fill="#444968"/>
<path d="M366.16 584.14C366.368 584.138 366.548 584.788 366.559 585.59C366.57 586.392 366.409 587.046 366.199 587.05C365.99 587.055 365.811 586.405 365.801 585.6C365.79 584.795 365.951 584.141 366.16 584.14Z" fill="#444968"/>
<path d="M366.165 578.319C366.374 578.321 366.54 578.974 366.535 579.776C366.531 580.578 366.357 581.229 366.147 581.229C365.938 581.229 365.772 580.577 365.777 579.772C365.783 578.967 365.957 578.316 366.165 578.319Z" fill="#444968"/>
<path d="M366.285 572.499C366.494 572.506 366.648 573.161 366.627 573.963C366.606 574.765 366.419 575.412 366.211 575.408C366.002 575.404 365.848 574.749 365.869 573.944C365.89 573.14 366.076 572.493 366.285 572.499Z" fill="#444968"/>
<path d="M366.519 566.683C366.728 566.694 366.868 567.352 366.833 568.155C366.797 568.957 366.598 569.599 366.389 569.591C366.181 569.583 366.041 568.925 366.076 568.12C366.111 567.316 366.309 566.672 366.519 566.683Z" fill="#444968"/>
<path d="M366.861 560.872C367.069 560.886 367.197 561.548 367.146 562.349C367.095 563.15 366.883 563.789 366.675 563.777C366.466 563.764 366.339 563.103 366.39 562.3C366.441 561.498 366.652 560.858 366.861 560.872Z" fill="#444968"/>
<path d="M367.32 555.07C367.528 555.088 367.643 555.752 367.576 556.551C367.509 557.351 367.285 557.986 367.076 557.97C366.868 557.953 366.753 557.291 366.82 556.488C366.889 555.686 367.111 555.052 367.32 555.07Z" fill="#444968"/>
<path d="M367.78 550.317C367.989 550.34 368.115 550.772 368.063 551.283C368.011 551.794 367.8 552.193 367.591 552.172C367.383 552.153 367.257 551.72 367.309 551.206C367.362 550.694 367.573 550.296 367.78 550.317Z" fill="#444968"/>
<path d="M320.979 801.09C321.185 801.13 321.223 801.802 321.066 802.59C320.908 803.379 320.614 803.983 320.409 803.943C320.205 803.902 320.166 803.23 320.324 802.442C320.481 801.654 320.775 801.049 320.979 801.09Z" fill="#444968"/>
<path d="M322.122 795.383C322.326 795.424 322.365 796.096 322.207 796.884C322.049 797.672 321.755 798.277 321.551 798.236C321.345 798.196 321.307 797.524 321.464 796.736C321.622 795.947 321.916 795.341 322.122 795.383Z" fill="#444968"/>
<path d="M323.264 789.675C323.47 789.716 323.508 790.388 323.351 791.176C323.193 791.964 322.899 792.569 322.694 792.528C322.49 792.488 322.451 791.816 322.609 791.028C322.766 790.239 323.06 789.635 323.264 789.675Z" fill="#444968"/>
<path d="M324.405 783.969C324.609 784.009 324.649 784.681 324.492 785.47C324.334 786.258 324.04 786.864 323.835 786.822C323.631 786.781 323.592 786.109 323.748 785.321C323.905 784.533 324.199 783.927 324.405 783.969Z" fill="#444968"/>
<path d="M325.545 778.261C325.751 778.302 325.789 778.975 325.632 779.762C325.474 780.55 325.18 781.155 324.976 781.114C324.771 781.074 324.732 780.402 324.89 779.614C325.047 778.825 325.341 778.221 325.545 778.261Z" fill="#444968"/>
<path d="M326.687 772.555C326.893 772.595 326.93 773.267 326.774 774.056C326.617 774.844 326.321 775.449 326.117 775.408C325.911 775.367 325.873 774.695 326.03 773.907C326.187 773.119 326.481 772.513 326.687 772.555Z" fill="#444968"/>
<path d="M327.831 766.847C328.036 766.888 328.074 767.559 327.917 768.348C327.759 769.136 327.465 769.741 327.261 769.7C327.056 769.659 327.017 768.988 327.175 768.199C327.332 767.411 327.626 766.806 327.831 766.847Z" fill="#444968"/>
<path d="M328.972 761.14C329.178 761.181 329.216 761.853 329.059 762.641C328.901 763.43 328.607 764.034 328.402 763.994C328.196 763.953 328.159 763.281 328.315 762.493C328.472 761.705 328.766 761.098 328.972 761.14Z" fill="#444968"/>
<path d="M330.112 755.433C330.316 755.473 330.355 756.145 330.199 756.933C330.04 757.722 329.746 758.326 329.542 758.286C329.338 758.245 329.298 757.573 329.457 756.785C329.613 755.997 329.907 755.392 330.112 755.433Z" fill="#444968"/>
<path d="M331.257 749.726C331.463 749.767 331.5 750.439 331.344 751.227C331.185 752.015 330.891 752.62 330.687 752.58C330.481 752.539 330.443 751.867 330.602 751.079C330.757 750.291 331.051 749.684 331.257 749.726Z" fill="#444968"/>
<path d="M332.397 744.019C332.603 744.059 332.641 744.731 332.484 745.519C332.326 746.308 332.032 746.914 331.827 746.872C331.623 746.831 331.584 746.159 331.742 745.371C331.899 744.583 332.193 743.978 332.397 744.019Z" fill="#444968"/>
<path d="M333.538 738.312C333.744 738.353 333.782 739.025 333.625 739.813C333.467 740.601 333.173 741.206 332.969 741.165C332.763 741.125 332.725 740.453 332.882 739.665C333.039 738.876 333.333 738.27 333.538 738.312Z" fill="#444968"/>
<path d="M334.68 732.604C334.885 732.645 334.923 733.317 334.765 734.105C334.607 734.893 334.313 735.498 334.108 735.457C333.904 735.417 333.865 734.745 334.023 733.957C334.181 733.168 334.475 732.564 334.68 732.604Z" fill="#444968"/>
<path d="M335.82 726.896C336.026 726.937 336.064 727.609 335.906 728.397C335.747 729.185 335.453 729.79 335.249 729.75C335.045 729.709 335.005 729.037 335.164 728.249C335.32 727.462 335.614 726.856 335.82 726.896Z" fill="#444968"/>
<path d="M336.963 721.19C337.169 721.231 337.207 721.904 337.05 722.691C336.892 723.479 336.598 724.084 336.394 724.043C336.189 724.003 336.15 723.331 336.308 722.543C336.465 721.754 336.759 721.15 336.963 721.19Z" fill="#444968"/>
<path d="M338.104 715.482C338.31 715.523 338.348 716.195 338.191 716.983C338.033 717.771 337.739 718.376 337.534 718.336C337.33 718.295 337.291 717.623 337.449 716.835C337.604 716.048 337.898 715.442 338.104 715.482Z" fill="#444968"/>
<path d="M339.245 709.776C339.449 709.816 339.489 710.488 339.332 711.277C339.174 712.065 338.88 712.67 338.675 712.629C338.471 712.588 338.432 711.916 338.588 711.128C338.747 710.34 339.041 709.735 339.245 709.776Z" fill="#444968"/>
<path d="M340.389 704.068C340.595 704.109 340.633 704.781 340.476 705.569C340.318 706.357 340.024 706.962 339.819 706.921C339.615 706.881 339.576 706.209 339.734 705.42C339.889 704.634 340.183 704.027 340.389 704.068Z" fill="#444968"/>
<path d="M341.531 698.362C341.736 698.402 341.775 699.074 341.617 699.863C341.458 700.651 341.164 701.257 340.96 701.215C340.756 701.174 340.716 700.502 340.875 699.714C341.031 698.926 341.327 698.321 341.531 698.362Z" fill="#444968"/>
<path d="M342.67 692.654C342.876 692.694 342.914 693.366 342.757 694.155C342.599 694.943 342.305 695.548 342.101 695.507C341.896 695.466 341.857 694.794 342.015 694.006C342.171 693.219 342.465 692.613 342.67 692.654Z" fill="#444968"/>
<path d="M343.815 686.947C344.021 686.988 344.059 687.66 343.902 688.448C343.744 689.236 343.45 689.843 343.245 689.801C343.041 689.76 343.002 689.088 343.16 688.3C343.315 687.512 343.611 686.907 343.815 686.947Z" fill="#444968"/>
<path d="M344.956 681.24C345.162 681.28 345.199 681.952 345.043 682.741C344.884 683.529 344.59 684.134 344.386 684.093C344.182 684.052 344.142 683.38 344.299 682.592C344.456 681.805 344.75 681.199 344.956 681.24Z" fill="#444968"/>
<path d="M346.097 675.533C346.302 675.574 346.34 676.246 346.183 677.034C346.025 677.822 345.731 678.427 345.527 678.387C345.321 678.346 345.283 677.674 345.441 676.886C345.597 676.098 345.892 675.493 346.097 675.533Z" fill="#444968"/>
<path d="M347.241 669.825C347.447 669.866 347.484 670.539 347.328 671.326C347.169 672.114 346.875 672.719 346.671 672.679C346.467 672.638 346.427 671.966 346.586 671.178C346.741 670.391 347.035 669.785 347.241 669.825Z" fill="#444968"/>
<path d="M348.38 664.119C348.585 664.16 348.623 664.832 348.465 665.62C348.307 666.408 348.013 667.013 347.808 666.972C347.603 666.932 347.565 666.26 347.722 665.471C347.88 664.683 348.175 664.077 348.38 664.119Z" fill="#444968"/>
<path d="M349.522 658.411C349.728 658.452 349.766 659.124 349.609 659.912C349.451 660.7 349.157 661.305 348.952 661.265C348.748 661.224 348.709 660.552 348.867 659.764C349.022 658.977 349.316 658.371 349.522 658.411Z" fill="#444968"/>
<path d="M350.665 652.705C350.869 652.745 350.908 653.417 350.75 654.206C350.592 654.994 350.298 655.599 350.094 655.558C349.888 655.517 349.85 654.845 350.007 654.057C350.165 653.269 350.46 652.664 350.665 652.705Z" fill="#444968"/>
<path d="M351.803 646.997C352.009 647.038 352.047 647.71 351.89 648.498C351.732 649.286 351.438 649.891 351.233 649.85C351.029 649.81 350.99 649.138 351.148 648.349C351.305 647.563 351.599 646.956 351.803 646.997Z" fill="#444968"/>
<path d="M352.948 641.291C353.152 641.331 353.191 642.003 353.035 642.791C352.876 643.58 352.582 644.186 352.378 644.144C352.174 644.103 352.134 643.431 352.293 642.643C352.448 641.855 352.743 641.249 352.948 641.291Z" fill="#444968"/>
<path d="M354.09 635.583C354.296 635.624 354.333 636.296 354.175 637.084C354.017 637.872 353.723 638.478 353.519 638.436C353.314 638.396 353.275 637.724 353.433 636.935C353.59 636.149 353.884 635.542 354.09 635.583Z" fill="#444968"/>
<path d="M355.229 629.877C355.433 629.917 355.473 630.589 355.316 631.377C355.158 632.166 354.864 632.77 354.659 632.73C354.455 632.689 354.416 632.017 354.574 631.229C354.729 630.441 355.025 629.835 355.229 629.877Z" fill="#444968"/>
<path d="M356.371 624.169C356.575 624.209 356.615 624.881 356.456 625.67C356.298 626.458 356.004 627.063 355.8 627.022C355.595 626.981 355.556 626.309 355.714 625.521C355.871 624.733 356.165 624.128 356.371 624.169Z" fill="#444968"/>
<path d="M357.512 618.462C357.718 618.503 357.756 619.175 357.598 619.963C357.441 620.751 357.145 621.356 356.941 621.315C356.735 621.275 356.697 620.603 356.856 619.815C357.012 619.026 357.308 618.42 357.512 618.462Z" fill="#444968"/>
<path d="M358.655 612.755C358.859 612.795 358.898 613.467 358.742 614.255C358.583 615.044 358.289 615.65 358.085 615.608C357.881 615.567 357.841 614.895 358 614.107C358.155 613.32 358.449 612.714 358.655 612.755Z" fill="#444968"/>
<path d="M359.796 607.048C360.002 607.089 360.039 607.761 359.883 608.549C359.724 609.337 359.43 609.942 359.226 609.901C359.02 609.861 358.982 609.189 359.141 608.401C359.296 607.612 359.591 607.006 359.796 607.048Z" fill="#444968"/>
<path d="M360.94 601.34C361.144 601.381 361.184 602.053 361.027 602.841C360.869 603.629 360.575 604.234 360.37 604.194C360.166 604.153 360.127 603.481 360.285 602.693C360.44 601.905 360.734 601.3 360.94 601.34Z" fill="#444968"/>
<path d="M362.079 595.634C362.284 595.674 362.322 596.346 362.164 597.135C362.006 597.923 361.712 598.528 361.507 598.487C361.302 598.446 361.264 597.774 361.422 596.986C361.579 596.198 361.873 595.592 362.079 595.634Z" fill="#444968"/>
<path d="M476.199 419.632C476.199 419.632 485.886 405.109 486.143 404.982C486.143 404.982 494.888 390.257 497.794 390.254C500.719 390.251 499.652 393.237 496.65 398.514C494.018 403.138 493.752 406.026 493.752 406.026L500.934 410.364C500.934 410.364 505.731 408.507 505.931 412.979C505.998 414.474 505.603 416.325 505.105 419.051C504.814 420.642 504.093 422.341 502.591 421.741C501.902 421.467 501.339 420.936 501.305 419.944C501.213 417.298 501.707 416.328 501.37 416.326C500.939 416.325 496.201 430.203 496.201 430.203L476.199 419.632Z" fill="#FFBE9D"/>
<path d="M495.758 408.231C496.497 407.724 497.24 407.215 498.062 406.858C498.883 406.501 499.795 406.303 500.677 406.452C501.232 406.544 501.781 406.788 502.133 407.226C502.616 407.827 502.649 408.697 502.409 409.431C502.17 410.165 501.697 410.795 501.232 411.409" fill="#FFBE9D"/>
<path d="M492.484 405.301C493.184 404.824 493.89 404.343 494.668 404.007C495.447 403.671 496.311 403.485 497.146 403.624C497.671 403.711 498.191 403.939 498.525 404.353C498.983 404.919 499.013 405.739 498.786 406.429C498.558 407.121 496.994 408.723 496.554 409.302" fill="#FFBE9D"/>
<path d="M479.575 411.435L465.578 441.371L481.009 457.142L489.051 434.831C489.051 434.831 493.36 435.69 495.117 432.832C497.078 429.642 499.653 420.421 499.653 420.421L479.575 411.435Z" fill="#FFBE9D"/>
<path d="M489.575 410.608C489.424 410.562 489.774 408.557 491.232 406.469C491.974 405.435 492.917 404.731 493.631 404.345C494.349 403.953 494.839 403.823 494.884 403.909C495.017 404.132 493.208 405.028 491.842 406.918C490.501 408.822 489.809 410.708 489.575 410.608Z" fill="#EB996E"/>
<path d="M505.107 410.733C505.044 410.832 504.565 410.572 503.75 410.431C502.951 410.286 501.763 410.307 500.692 410.898C499.623 411.492 498.926 412.469 498.419 413.152C497.918 413.852 497.587 414.293 497.492 414.24C497.405 414.191 497.562 413.669 497.961 412.872C498.367 412.101 499.04 410.957 500.326 410.233C501.618 409.522 503.021 409.607 503.882 409.911C504.769 410.218 505.161 410.664 505.107 410.733Z" fill="#EB996E"/>
<path d="M499.896 406.511C499.937 406.738 498.167 407.037 496.608 408.444C495.043 409.827 494.274 411.453 494.06 411.346C493.889 411.303 494.365 409.433 496.108 407.874C496.973 407.113 497.957 406.682 498.685 406.523C499.419 406.362 499.884 406.418 499.896 406.511Z" fill="#EB996E"/>
<path d="M503.336 412.977C503.534 412.9 503.901 414.062 503.166 415.223C502.44 416.39 501.235 416.564 501.218 416.354C501.155 416.148 501.973 415.732 502.524 414.821C503.104 413.928 503.124 413.009 503.336 412.977Z" fill="#EB996E"/>
<path d="M476.235 419.049C476.235 419.049 475.746 410.116 477.905 408.093C480.064 406.07 486.252 408.171 486.252 408.171" fill="#FFBE9D"/>
<path d="M487.126 403.912C487.29 404.042 485.857 406.322 483.925 409.004C481.991 411.686 480.283 413.767 480.108 413.652C479.933 413.537 481.367 411.258 483.31 408.56C485.253 405.864 486.963 403.782 487.126 403.912Z" fill="#EB996E"/>
<path d="M363.201 336.182L362.988 405.896L392.898 407.323L393.763 390.366C393.763 390.366 404.386 392.476 407.127 382.608C408.879 376.306 408.441 327.601 408.441 327.601L363.201 336.182Z" fill="#FFBE9D"/>
<path d="M412.372 332.511C407.661 333.859 406.638 341.559 406.638 341.559L399.249 357.88C395.484 354.933 390.43 355.103 389.472 361.716C388.781 366.496 394.724 367.463 394.724 367.463C391.264 373.35 388.917 378.113 383.879 383.713C378.428 389.774 375.373 390.386 369.461 390.484H362.941C362.941 390.484 359.749 380.123 353.84 354.215C347.282 325.472 381.271 329.175 387.573 321.837C397.836 309.888 427.223 328.259 412.372 332.511Z" fill="#263238"/>
<path d="M354.464 356.924C348.955 353.224 348.458 342.868 351.671 336.659C354.886 330.45 361.651 326.243 368.641 326.107C369.576 326.089 370.541 326.134 371.413 325.797C372.706 325.297 373.544 324.072 374.389 322.973C379.313 316.571 384.151 310.28 393.328 310.282C394.819 310.282 396.469 310.282 399.098 311.713C400.407 312.425 402.253 314.842 402.563 316.299C404.288 315.481 406.043 314.654 407.93 314.368C409.818 314.083 411.89 314.413 413.315 315.682C414.74 316.951 415.269 319.287 414.162 320.841C417.254 320.645 420.186 323.205 420.673 326.266C421.16 329.326 416.774 331.478 416.318 331.716C416.318 331.716 418.726 336.756 412.984 339.777C410.673 340.994 407.667 339.528 407.326 339.351" fill="#263238"/>
<path d="M376.3 363.627C376.493 363.608 376.79 366.026 376.129 368.921C375.485 371.82 374.182 373.878 374.015 373.777C373.815 373.677 374.774 371.542 375.39 368.754C376.027 365.974 376.076 363.633 376.3 363.627Z" fill="#455A64"/>
<path d="M379.919 360.207C380.12 360.215 380.164 362.521 379.64 365.303C379.125 368.088 378.253 370.223 378.061 370.157C377.855 370.091 378.39 367.894 378.895 365.164C379.41 362.436 379.703 360.193 379.919 360.207Z" fill="#455A64"/>
<path d="M390.278 348.701C390.35 348.8 389.503 349.417 388.427 350.679C387.342 351.926 386.108 353.876 385.205 356.242C384.299 358.61 383.802 360.876 383.417 362.512C383.042 364.151 382.783 365.167 382.676 365.148C382.577 365.131 382.648 364.087 382.89 362.412C383.142 360.743 383.562 358.417 384.498 355.969C385.431 353.521 386.802 351.516 388.034 350.316C389.259 349.097 390.235 348.628 390.278 348.701Z" fill="#455A64"/>
<path d="M394.466 340.868C394.554 340.844 394.859 341.542 395.047 342.753C395.236 343.96 395.241 345.688 394.786 347.513C394.326 349.339 393.505 350.859 392.769 351.834C392.033 352.815 391.433 353.286 391.368 353.223C391.18 353.08 393.204 350.829 394.051 347.329C394.956 343.845 394.233 340.905 394.466 340.868Z" fill="#455A64"/>
<path d="M358.77 358.279C358.667 358.463 357.752 358.145 356.724 357.571C355.697 356.997 354.946 356.384 355.048 356.2C355.151 356.018 356.066 356.335 357.094 356.91C358.121 357.483 358.872 358.097 358.77 358.279Z" fill="#455A64"/>
<path d="M373.219 350.836C373.416 350.865 373.293 352.342 372.365 353.868C371.445 355.401 370.195 356.196 370.077 356.035C369.934 355.869 370.875 354.884 371.715 353.476C372.572 352.077 373.004 350.788 373.219 350.836Z" fill="#455A64"/>
<path d="M377.665 348.45C377.858 348.493 377.545 350.263 376.334 352.073C375.135 353.893 373.626 354.869 373.511 354.708C373.37 354.539 374.579 353.364 375.702 351.655C376.84 349.958 377.454 348.386 377.665 348.45Z" fill="#455A64"/>
<path d="M399.748 319.253C399.696 319.313 399.186 318.826 398.108 318.213C397.029 317.621 395.307 316.972 393.098 316.918C390.91 316.849 388.223 317.37 385.745 318.893C383.267 320.414 381.075 322.89 379.483 325.868C378.324 328.032 377.521 330.286 376.942 332.405L376.821 332.843L376.42 332.631C374.199 331.465 371.847 330.953 369.747 330.925C367.639 330.867 365.784 331.254 364.315 331.745C361.36 332.755 359.957 334.083 359.88 333.964C359.858 333.938 360.189 333.604 360.881 333.078C361.577 332.561 362.667 331.889 364.163 331.317C365.654 330.75 367.562 330.292 369.756 330.305C371.94 330.288 374.411 330.782 376.763 331.992L376.242 332.218C376.813 330.053 377.622 327.74 378.818 325.508C380.46 322.437 382.757 319.861 385.387 318.294C388.021 316.723 390.841 316.24 393.123 316.38C395.427 316.508 397.197 317.268 398.262 317.958C398.787 318.325 399.182 318.622 399.412 318.869C399.65 319.105 399.766 319.235 399.748 319.253Z" fill="#455A64"/>
<path d="M415.475 323.047C415.422 323.033 416.307 322.823 417.191 323.824C417.595 324.305 417.967 325.067 417.88 326.008C417.789 326.946 417.141 327.913 416.141 328.491C415.157 329.095 413.81 329.295 412.508 328.991C411.198 328.706 409.939 328.011 408.759 327.174C407.571 326.342 406.428 325.376 405.093 324.661C403.76 323.937 402.259 323.409 400.674 323.108C397.491 322.515 394.328 322.873 391.657 323.726C388.97 324.587 386.74 325.88 384.991 327.114C381.5 329.624 379.776 331.725 379.67 331.616C379.635 331.585 380.034 331.044 380.853 330.142C381.679 329.252 382.928 327.996 384.675 326.68C386.417 325.368 388.675 323.989 391.44 323.061C394.196 322.14 397.482 321.742 400.814 322.362C402.473 322.677 404.05 323.237 405.45 324.009C406.864 324.78 408.019 325.782 409.164 326.603C410.301 327.434 411.464 328.092 412.647 328.377C413.824 328.675 414.985 328.525 415.874 328.024C416.767 327.545 417.347 326.729 417.459 325.953C417.572 325.165 417.289 324.461 416.959 324.004C416.248 323.055 415.436 323.131 415.475 323.047Z" fill="#455A64"/>
<path d="M331.355 413.197L304.643 458.057C301.654 463.289 298.888 468.869 296.249 474.651C294.119 480.191 295.35 487.422 299.068 492.02L298.314 490.933C301.276 494.597 305.735 496.727 310.448 496.727H311.138C317.348 496.727 322.966 493.045 325.444 487.349L334.026 474.327L331.355 413.197Z" fill="#E8505B"/>
<path d="M411.955 404.626C404.784 400.964 397.704 400.136 389.979 399.911C380.984 399.649 368.303 398.391 358.609 399.421C358.609 399.421 330.99 401.465 329.072 420.393L332.843 509.293L326.52 546.96L415.033 549.634L414.399 505.197C415.492 482.076 413.159 449.337 413.159 449.337C414.521 436.907 421.322 431.312 422.288 423.229C423.141 416.084 418.364 407.899 411.955 404.626Z" fill="#E15D58"/>
<path d="M387.009 510.571C387.038 510.605 386.593 511.064 385.707 511.805C384.822 512.547 383.467 513.538 381.672 514.571C378.114 516.647 372.575 518.729 366.199 518.841C359.822 518.954 354.211 517.069 350.582 515.12C348.752 514.15 347.362 513.209 346.452 512.498C345.539 511.789 345.079 511.347 345.107 511.312C345.195 511.19 347.153 512.85 350.823 514.641C354.457 516.437 359.961 518.193 366.185 518.082C372.407 517.972 377.844 516.024 381.413 514.101C385.016 512.18 386.918 510.452 387.009 510.571Z" fill="#263238"/>
<path d="M328.941 421.409C328.967 421.408 329.001 421.706 329.044 422.275C329.084 422.924 329.133 423.747 329.194 424.758C329.299 427.018 329.443 430.115 329.62 433.899C329.946 441.708 330.391 452.326 330.883 464.058C331.415 475.79 331.895 486.406 332.249 494.214C332.442 497.995 332.599 501.092 332.714 503.35C332.757 504.362 332.792 505.185 332.82 505.836C332.836 506.405 332.831 506.706 332.806 506.707C332.78 506.71 332.733 506.413 332.669 505.848C332.605 505.199 332.522 504.379 332.421 503.371C332.214 501.219 331.984 498.101 331.716 494.246C331.191 486.535 330.625 475.874 330.128 464.09C329.63 452.312 329.285 441.642 329.088 433.918C329.011 430.131 328.949 427.03 328.903 424.769C328.9 423.756 328.897 422.931 328.895 422.28C328.897 421.71 328.914 421.411 328.941 421.409Z" fill="#263238"/>
<path d="M323.397 426.116C323.419 426.129 323.314 426.367 323.091 426.808C322.821 427.322 322.491 427.954 322.088 428.722C321.194 430.371 319.866 432.74 318.162 435.629C314.802 441.436 309.749 449.213 304.644 458.056C302.093 462.473 299.928 466.845 298.054 470.839C296.195 474.829 295.236 478.744 295.481 482.057C295.668 485.368 296.651 487.942 297.53 489.564C298.407 491.206 299.132 491.968 299.069 492.018C299.049 492.035 298.866 491.852 298.533 491.482C298.211 491.104 297.757 490.525 297.274 489.71C296.298 488.101 295.209 485.494 294.946 482.092C294.621 478.685 295.567 474.604 297.417 470.555C299.272 466.51 301.419 462.126 303.987 457.681C309.114 448.803 314.231 441.084 317.706 435.353C319.404 432.565 320.8 430.273 321.834 428.575C322.286 427.835 322.657 427.228 322.96 426.732C323.224 426.316 323.374 426.104 323.397 426.116Z" fill="#263238"/>
<path d="M486.21 450.521L465.728 437.125L452.801 459.518C452.801 459.518 434.879 434.607 426.738 420.012C419.245 406.579 409.551 402.962 404.874 401.989C403.492 401.7 402.239 402.851 402.392 404.254L409.456 452.691C410.345 455.212 425.129 476.645 433.392 487.429C447.18 505.429 467.496 493.91 473.075 481.311C477.503 471.314 484.395 456.123 486.21 450.521Z" fill="#E8505B"/>
<path d="M458.69 479.729C458.582 479.734 458.459 478.507 458.298 476.533C458.127 474.562 457.925 471.833 457.309 468.905C456.695 465.976 455.67 463.45 454.694 461.756C453.731 460.051 452.915 459.128 453.007 459.046C453.065 458.984 454.038 459.791 455.152 461.478C456.276 463.149 457.421 465.741 458.051 468.746C458.683 471.749 458.8 474.52 458.834 476.507C458.856 478.497 458.791 479.725 458.69 479.729Z" fill="#263238"/>
<path d="M464.685 469.721C464.564 469.73 464.466 468.682 463.957 467.098C463.447 465.528 462.433 463.416 460.681 461.606C458.954 459.774 456.857 458.659 455.235 458.627C453.599 458.543 452.692 459.198 452.638 459.085C452.561 459.041 453.42 458.154 455.24 458.092C457.059 457.983 459.421 459.153 461.227 461.083C463.086 463.003 464.077 465.283 464.472 466.954C464.868 468.643 464.771 469.721 464.685 469.721Z" fill="#263238"/>
<path d="M403.538 407.971C403.555 407.99 403.384 408.186 403.047 408.539C402.858 408.732 402.65 408.945 402.417 409.183C402.179 409.469 401.918 409.784 401.633 410.128C400.496 411.567 399.002 413.842 398.086 417.013C397.111 420.149 396.724 424.139 397.309 428.449C397.609 430.6 398.137 432.838 399.069 434.999C399.975 437.187 401.175 439.356 402.38 441.575C407.395 450.378 412.557 457.998 416.289 463.495C418.139 466.153 419.659 468.339 420.786 469.959C421.856 471.479 422.459 472.313 422.413 472.35C422.392 472.365 422.215 472.178 421.898 471.804C421.58 471.43 421.118 470.873 420.549 470.135C419.396 468.672 417.789 466.509 415.85 463.801C411.997 458.372 406.759 450.795 401.718 441.945C400.503 439.706 399.303 437.526 398.383 435.285C397.43 433.043 396.903 430.742 396.616 428.54C396.056 424.124 396.51 420.044 397.574 416.852C398.579 413.625 400.181 411.339 401.406 409.936C401.715 409.603 401.997 409.299 402.253 409.024C402.508 408.802 402.734 408.604 402.94 408.424C403.318 408.108 403.521 407.951 403.538 407.971Z" fill="#263238"/>
<path d="M403.594 536.667C403.603 536.692 403.387 536.785 402.97 536.937C402.465 537.112 401.858 537.322 401.13 537.574C400.331 537.85 399.345 538.168 398.185 538.477C397.026 538.794 395.715 539.194 394.235 539.512C391.297 540.236 387.748 540.897 383.78 541.431C379.807 541.921 375.411 542.259 370.788 542.288C366.164 542.285 361.765 541.972 357.788 541.504C353.816 540.992 350.264 540.352 347.321 539.644C345.84 539.334 344.527 538.941 343.366 538.631C342.203 538.329 341.217 538.017 340.415 537.745C339.686 537.497 339.078 537.292 338.571 537.119C338.153 536.968 337.937 536.877 337.946 536.852C337.954 536.827 338.185 536.87 338.618 536.974C339.133 537.108 339.754 537.269 340.498 537.462C341.31 537.691 342.304 537.959 343.473 538.221C344.639 538.491 345.955 538.846 347.436 539.12C350.379 539.757 353.92 540.339 357.869 540.81C361.824 541.235 366.192 541.525 370.784 541.529C375.375 541.5 379.74 541.186 383.692 540.737C387.639 540.244 391.175 539.642 394.115 538.988C395.595 538.706 396.908 538.343 398.073 538.067C399.24 537.798 400.233 537.523 401.044 537.29C401.787 537.093 402.407 536.928 402.922 536.79C403.354 536.687 403.586 536.642 403.594 536.667Z" fill="#263238"/>
<g opacity="0.3">
<path d="M327.34 484.477L331.338 478.273L329.252 429.42L327.34 484.477Z" fill="black"/>
</g>
<g opacity="0.3">
<path d="M396.379 426.115C396.379 426.115 396.508 443.919 400.624 450.97C404.738 458.022 414.366 473.263 414.333 472.353C414.3 471.443 413.784 459.788 413.784 459.788C413.784 459.788 396.463 436.08 396.379 426.115Z" fill="black"/>
</g>
<path d="M323.802 485.961C323.814 485.989 323.382 486.21 322.524 486.33C321.673 486.455 320.381 486.396 318.919 485.865C317.46 485.339 315.866 484.332 314.442 482.865C313.014 481.39 311.835 479.483 310.708 477.468C309.584 475.452 308.568 473.515 307.408 471.93C306.253 470.344 304.975 469.096 303.757 468.263C301.293 466.555 299.287 466.666 299.325 466.516C299.323 466.484 299.799 466.407 300.653 466.524C301.505 466.638 302.725 467.013 304.04 467.832C305.352 468.648 306.722 469.91 307.947 471.529C309.178 473.152 310.225 475.106 311.344 477.111C312.461 479.11 313.598 480.977 314.928 482.402C316.258 483.826 317.746 484.827 319.104 485.385C321.879 486.544 323.807 485.8 323.802 485.961Z" fill="white"/>
<path d="M329.222 455.282C329.097 455.317 328.793 454.225 327.938 452.65C327.094 451.077 325.586 449.071 323.415 447.421C321.233 445.782 318.893 444.88 317.147 444.498C315.4 444.106 314.266 444.112 314.266 443.983C314.259 443.912 315.404 443.718 317.245 443.991C319.076 444.255 321.572 445.123 323.854 446.839C326.128 448.564 327.645 450.728 328.399 452.418C329.164 454.115 329.292 455.271 329.222 455.282Z" fill="white"/>
<path d="M396.702 429.063C396.686 429.135 395.742 428.88 394.002 428.738C392.266 428.6 389.716 428.659 386.685 429.405C383.652 430.126 380.178 431.508 376.533 433.465C372.865 435.381 368.982 437.817 364.586 439.828C360.202 441.879 355.615 442.918 351.436 443.175C347.243 443.41 343.462 442.92 340.396 442.148C337.32 441.39 334.954 440.368 333.385 439.569C332.587 439.192 332.007 438.823 331.607 438.589C331.209 438.349 331.007 438.214 331.02 438.191C331.054 438.13 331.905 438.604 333.506 439.311C335.101 440.025 337.468 440.963 340.516 441.645C343.556 442.344 347.28 442.771 351.394 442.505C355.502 442.211 359.966 441.183 364.287 439.163C368.621 437.182 372.512 434.767 376.223 432.867C379.915 430.927 383.471 429.567 386.572 428.899C389.673 428.205 392.28 428.225 394.033 428.453C394.91 428.569 395.585 428.703 396.032 428.836C396.478 428.962 396.709 429.039 396.702 429.063Z" fill="white"/>
<path d="M413.911 477.5C413.918 477.524 413.641 477.617 413.104 477.771C412.563 477.902 411.781 478.188 410.733 478.36C408.66 478.818 405.581 479.164 401.78 479.071C397.977 478.994 393.478 478.335 388.591 477.216C383.701 476.096 378.43 474.493 372.9 472.868C367.373 471.254 362.025 469.995 357.088 469.354C352.155 468.736 347.641 468.689 343.925 469.25C340.208 469.789 337.285 470.733 335.371 471.604C333.448 472.452 332.434 473.046 332.395 472.978C332.382 472.957 332.626 472.796 333.106 472.511C333.598 472.25 334.274 471.758 335.254 471.345C337.149 470.387 340.089 469.352 343.848 468.741C347.609 468.106 352.183 468.099 357.171 468.687C362.162 469.296 367.553 470.547 373.104 472.168C378.643 473.796 383.893 475.413 388.744 476.562C393.593 477.709 398.038 478.415 401.799 478.556C405.556 478.713 408.608 478.45 410.682 478.081C412.758 477.727 413.893 477.43 413.911 477.5Z" fill="white"/>
<path d="M414.402 505.197C414.335 505.43 410.253 502.793 402.756 502.058C399.037 501.652 394.559 501.872 389.65 502.511C384.738 503.179 379.391 504.305 373.745 505.365C368.101 506.419 362.692 507.348 357.716 507.782C352.745 508.229 348.217 508.197 344.467 507.694C340.715 507.207 337.745 506.381 335.78 505.611C334.779 505.276 334.055 504.876 333.544 504.662C333.041 504.427 332.782 504.294 332.793 504.271C332.821 504.205 333.891 504.673 335.875 505.345C337.854 506.027 340.81 506.767 344.528 507.183C348.247 507.614 352.724 507.593 357.656 507.113C362.592 506.646 367.973 505.702 373.613 504.648C379.245 503.589 384.613 502.481 389.565 501.845C394.515 501.237 399.05 501.069 402.813 501.545C406.575 501.996 409.541 502.882 411.476 503.731C412.469 504.093 413.17 504.539 413.673 504.771C414.161 505.029 414.413 505.174 414.402 505.197Z" fill="white"/>
<path d="M368.895 540.891C368.864 540.93 368.367 540.614 367.498 540.01C366.633 539.4 365.368 538.535 363.791 537.492C360.639 535.403 356.168 532.693 350.985 530.167C345.796 527.648 340.903 525.803 337.314 524.613C335.52 524.017 334.059 523.556 333.044 523.252C332.032 522.942 331.476 522.746 331.488 522.697C331.501 522.648 332.079 522.75 333.117 522.978C334.157 523.198 335.645 523.584 337.468 524.122C341.115 525.19 346.075 526.974 351.303 529.512C356.523 532.057 360.989 534.858 364.08 537.068C365.629 538.171 366.851 539.103 367.667 539.785C368.488 540.46 368.926 540.852 368.895 540.891Z" fill="white"/>
<path d="M411.99 540.416C412.027 540.484 410.969 541.188 409.048 541.892C407.136 542.599 404.325 543.205 401.191 543.113C398.057 543.011 395.289 542.232 393.424 541.409C391.551 540.587 390.537 539.819 390.579 539.754C390.641 539.646 391.737 540.25 393.613 540.929C395.484 541.612 398.177 542.284 401.214 542.385C404.249 542.472 406.979 541.969 408.889 541.402C410.804 540.841 411.935 540.306 411.99 540.416Z" fill="white"/>
<path d="M442.63 447.993C442.664 447.995 442.681 448.45 442.468 449.236C442.259 450.018 441.758 451.115 440.831 452.243C439.906 453.37 438.558 454.494 436.896 455.443C435.23 456.397 433.28 457.142 431.282 457.959C429.288 458.777 427.421 459.641 425.959 460.744C424.499 461.848 423.429 463.153 422.794 464.378C421.476 466.879 422.056 468.745 421.898 468.731C421.868 468.739 421.683 468.321 421.626 467.506C421.564 466.697 421.714 465.483 422.332 464.15C422.945 462.821 424.033 461.407 425.55 460.212C427.076 459.013 428.993 458.112 431.006 457.286C433.019 456.463 434.95 455.744 436.57 454.857C438.191 453.973 439.512 452.937 440.442 451.906C442.342 449.824 442.49 447.939 442.63 447.993Z" fill="white"/>
<path d="M425.428 418.279C425.477 418.292 425.39 418.741 425.191 419.549C425.099 419.955 424.966 420.446 424.759 421.001C424.557 421.557 424.361 422.205 424.038 422.877C423.465 424.254 422.611 425.82 421.516 427.463C420.389 429.084 419.003 430.769 417.351 432.342C415.678 433.896 413.913 435.177 412.226 436.202C410.518 437.195 408.902 437.951 407.494 438.438C406.804 438.719 406.144 438.876 405.579 439.043C405.013 439.216 404.515 439.318 404.103 439.386C403.284 439.534 402.83 439.593 402.821 439.544C402.791 439.408 404.594 439.059 407.308 437.958C408.668 437.419 410.227 436.629 411.877 435.628C413.508 434.593 415.219 433.328 416.851 431.812C418.466 430.274 419.832 428.645 420.965 427.081C422.065 425.495 422.947 423.988 423.569 422.663C424.836 420.021 425.295 418.241 425.428 418.279Z" fill="white"/>
<path d="M398.479 399.911C398.497 399.957 397.775 400.281 396.448 400.825C395.126 401.384 393.17 402.084 390.722 402.848C388.276 403.625 385.311 404.384 381.984 405.064C378.651 405.708 374.952 406.25 371.043 406.551C367.132 406.824 363.392 406.828 360 406.679C356.609 406.491 353.566 406.172 351.033 405.762C348.499 405.363 346.462 404.955 345.073 404.595C343.682 404.251 342.919 404.037 342.93 403.988C342.941 403.939 343.725 404.059 345.131 404.317C346.532 404.59 348.575 404.919 351.104 405.251C353.633 405.594 356.661 405.858 360.029 406.007C363.399 406.119 367.108 406.095 370.99 405.823C374.868 405.525 378.54 405.007 381.857 404.405C385.166 403.767 388.123 403.064 390.575 402.354C393.027 401.657 395.001 401.034 396.348 400.558C397.702 400.099 398.461 399.865 398.479 399.911Z" fill="white"/>
<path d="M453.49 460.85C453.53 460.838 453.74 461.332 453.985 462.269C454.234 463.202 454.497 464.59 454.587 466.322C454.83 469.796 454.167 474.562 453.21 479.707C452.746 482.291 452.18 484.765 451.306 486.903C450.45 489.046 449.274 490.817 448.054 492.07C446.843 493.342 445.611 494.092 444.725 494.491C443.833 494.89 443.298 494.98 443.287 494.943C443.207 494.809 445.407 494.273 447.675 491.72C448.802 490.466 449.884 488.745 450.681 486.655C451.493 484.569 452.03 482.146 452.492 479.575C453.448 474.428 454.179 469.752 454.071 466.34C454.021 462.929 453.35 460.884 453.49 460.85Z" fill="white"/>
<path d="M481.555 464.439C481.434 464.495 480.776 463.009 479.307 460.878C477.85 458.746 475.457 456.039 472.227 453.772C468.986 451.519 465.621 450.205 463.116 449.571C460.609 448.925 458.989 448.819 459 448.686C459.003 448.635 459.409 448.627 460.144 448.656C460.88 448.67 461.943 448.805 463.234 449.068C464.53 449.321 466.041 449.783 467.662 450.44C469.269 451.127 470.98 452.026 472.644 453.174C474.295 454.342 475.727 455.638 476.926 456.911C478.1 458.207 479.054 459.466 479.738 460.596C480.431 461.717 480.923 462.669 481.189 463.355C481.47 464.034 481.602 464.418 481.555 464.439Z" fill="white"/>
<g opacity="0.3">
<path d="M399.287 537.772C400.75 537.112 401.184 535.115 400.267 533.961C399.35 532.807 397.708 532.55 396.234 532.579C389.003 532.722 382.69 537.562 375.575 538.861C370.163 539.851 364.585 538.735 359.32 537.138C354.055 535.54 348.918 533.456 343.511 532.435C342.381 532.222 341.203 532.057 340.092 532.357C338.982 532.656 337.953 533.533 337.813 534.675C337.673 535.816 337.942 536.662 339.644 537.244C339.644 537.244 357.549 542.221 370.513 542.028C384.267 541.822 399.287 537.772 399.287 537.772Z" fill="black"/>
</g>
<path d="M799.724 825.333C799.724 825.535 667.314 825.697 504.015 825.697C340.659 825.697 208.277 825.534 208.277 825.333C208.277 825.133 340.66 824.969 504.015 824.969C667.314 824.969 799.724 825.133 799.724 825.333Z" fill="#263238"/>
</g>
<defs>
<filter id="filter0_d_88_621" x="0" y="0" width="1008" height="1008" filterUnits="userSpaceOnUse" color-interpolation-filters="sRGB">
<feFlood flood-opacity="0" result="BackgroundImageFix"/>
<feColorMatrix in="SourceAlpha" type="matrix" values="0 0 0 0 0 0 0 0 0 0 0 0 0 0 0 0 0 0 127 0" result="hardAlpha"/>
<feOffset dy="4"/>
<feGaussianBlur stdDeviation="2"/>
<feComposite in2="hardAlpha" operator="out"/>
<feColorMatrix type="matrix" values="0 0 0 0 0 0 0 0 0 0 0 0 0 0 0 0 0 0 0.25 0"/>
<feBlend mode="normal" in2="BackgroundImageFix" result="effect1_dropShadow_88_621"/>
<feBlend mode="normal" in="SourceGraphic" in2="effect1_dropShadow_88_621" result="shape"/>
</filter>
<linearGradient id="paint0_linear_88_621" x1="3.99991" y1="500" x2="1004" y2="500" gradientUnits="userSpaceOnUse">
<stop stop-color="#1C51BC"/>
<stop offset="0.1329" stop-color="#1D54BD"/>
<stop offset="0.2128" stop-color="#1F5CC1"/>
<stop offset="0.2787" stop-color="#226AC7"/>
<stop offset="0.337" stop-color="#277FD0"/>
<stop offset="0.3903" stop-color="#2D99DB"/>
<stop offset="0.4399" stop-color="#34B9E9"/>
<stop offset="0.4858" stop-color="#3DDFF9"/>
<stop offset="0.5" stop-color="#40ECFF"/>
<stop offset="0.5162" stop-color="#48D8F9"/>
<stop offset="0.5558" stop-color="#59ADEB"/>
<stop offset="0.5985" stop-color="#6986DF"/>
<stop offset="0.6438" stop-color="#7566D5"/>
<stop offset="0.6925" stop-color="#804CCC"/>
<stop offset="0.7457" stop-color="#8837C6"/>
<stop offset="0.8058" stop-color="#8E29C1"/>
<stop offset="0.8788" stop-color="#9121BF"/>
<stop offset="1" stop-color="#921EBE"/>
</linearGradient>
</defs>
</svg>
